<svg xmlns="http://www.w3.org/2000/svg" fill="currentColor" viewBox="0 0 229.41 102.46"><g data-name="Layer 2"><path class="cls-1" d="M23.93 99.23a1.25 1.25 0 011.23 1.37c0 1.31-1.27 1.46-1.88 1.46-2 0-4-.85-4.29-3.35 0-.28-.1-.47-.24-.47s-.09.05-.19.14a9.78 9.78 0 01-7.86 4C4.57 102.34 0 97.92 0 91.08c0-6.59 4.57-11.16 10.69-11.16a9.45 9.45 0 017.45 3.39c.23.33.37.56.47.56s.14-.23.14-.85v-8.48c0-3.2 0-4-1.88-4a5.67 5.67 0 00-.76 0h-.09a1.21 1.21 0 01-1.32-1.23A1.4 1.4 0 0116.2 68h1.56c3 0 3.77 1.89 3.77 3.91V72c-.05 4-.1 11.59-.09 18v6.41c0 2.26.8 2.83 1.83 2.83h.62zm-5.18-8.15c0-5.28-3.49-8.71-8-8.71-4.76 0-8 3.3-8 8.71s3.3 8.67 8 8.67c4.47 0 8-3.44 8-8.67zm25.63 7.81c-.05-.14-.1-.23-.19-.23a.26.26 0 00-.19.14 8.71 8.71 0 01-7.16 3.63c-4.76 0-7.63-3.25-7.63-6.5 0-2.36 1.55-4.76 5-5.84A74.89 74.89 0 0143 88.15c.57-.09.76-.23.76-.56v-.76c0-2.59-1.08-4.61-4.9-4.61a7.41 7.41 0 00-5.51 2.26 1.31 1.31 0 01-1 .47A1.28 1.28 0 0131 83.68c0-1.79 4-3.82 8-3.82 4.38 0 7.35 1.93 7.35 7.21a12.1 12.1 0 010 1.32c-.14 1.55-.23 4-.23 5.79 0 3.44.33 4.57 2.21 5.23a1.2 1.2 0 01.81 1.18 1.27 1.27 0 01-1.27 1.32 4 4 0 01-3.49-3.02zm-.71-7.2v-.61c0-.38-.14-.52-.47-.52h-.14c-7.4 1.18-11.31 2.12-11.31 5.42 0 2 1.89 4 5 4 2.44-.05 6.92-1.04 6.92-8.29zm16.39-8.82c-.75 0-.75.1-.75.66 0 1.79-.14 6.65-.14 10.13 0 3.68.09 6.17 3.77 6.17.42 0 .85 0 1.32-.09h.18a1.17 1.17 0 011.14 1.26c0 1.23-1.13 1.46-3 1.46-6 0-6-5.13-6-7.2 0-3 .09-8.76.09-11.07v-.76c0-.47-.14-.51-.47-.51h-2.83a1.23 1.23 0 01-1.32-1.28 1.21 1.21 0 011.32-1.22h2.73c.43 0 .52 0 .52-.47 0-.19.05-2.45.05-4.1v-1.22a1.37 1.37 0 112.73.09c0 1.37-.09 5.14-.09 5.14 0 .52.09.52.7.52h4.2a1.21 1.21 0 011.32 1.22 1.22 1.22 0 01-1.32 1.27zm25.2 16.01c0-.14-.09-.23-.18-.23a.26.26 0 00-.19.14 8.71 8.71 0 01-7.16 3.63c-4.76 0-7.63-3.25-7.63-6.5 0-2.36 1.55-4.76 5-5.84a72.61 72.61 0 018.71-1.93c.57-.1.75-.24.75-.57s.05-.52.05-.76c0-2.59-1.08-4.61-4.9-4.61a7.41 7.41 0 00-5.51 2.26 1.31 1.31 0 01-1 .47 1.27 1.27 0 01-1.32-1.27c0-1.79 4-3.81 8-3.82 4.38 0 7.35 1.93 7.35 7.21a12.1 12.1 0 01-.05 1.32c-.14 1.55-.23 4-.23 5.79 0 3.44.33 4.57 2.21 5.23a1.19 1.19 0 01.8 1.18 1.27 1.27 0 01-1.27 1.32 4 4 0 01-3.43-3.02zm-.7-7.2v-.61c0-.38-.14-.52-.47-.52h-.15c-7.39 1.18-11.3 2.12-11.3 5.42 0 2 1.89 4 5 4 2.44-.05 6.92-1.04 6.92-8.29zm24.02-10.61V86a1.16 1.16 0 01-1.18 1.13 1.2 1.2 0 01-1.32-1.22c0-3.77-4.19-3.77-4.47-3.77-2.45 0-3.82 1.46-3.82 3a3.62 3.62 0 002.31 3.1c1.32.62 3.58 1.56 5 2.31 2.92 1.51 4.2 3.72 4.2 5.84 0 2.59-2.07 6.08-7.44 6.08a7.4 7.4 0 01-4.72-1.55.54.54 0 00-.33-.19c-.09 0-.14.09-.14.24 0 1.17-.56 1.31-1.13 1.31a1.13 1.13 0 01-1.22-1.13v-.09c0-1 .09-1.74.09-2.45s0-1.41-.09-2.54V96a1.23 1.23 0 011.32-1.22A1.21 1.21 0 0197 96c0 .33-.1.56-.1.89 0 1.56 2.36 3.11 5 3.11 2.41 0 4.71-1.37 4.71-3.63 0-2.49-2.07-3.62-7.53-5.88a5.71 5.71 0 01-3.82-5.23c0-2.73 2.21-5.42 6.4-5.42a7.63 7.63 0 014.15 1.27.35.35 0 00.28.09c.24 0 .19-.42.24-.56a1.06 1.06 0 011.08-.76 1.11 1.11 0 011.17 1.12zM135 101.79c-1.22 0-2.35-.09-3.39-.09s-2.07 0-3.16.1h-.09a1.2 1.2 0 01-1.27-1.23 1.1 1.1 0 011.27-1.22c1.22 0 1.22-.29 1.22-.33a.31.31 0 00-.09-.19c-2.5-2.45-6.36-6-7.82-7.54a1.68 1.68 0 00-1.42-.56c-.7 0-.75.42-.75 2.87v4.9a.72.72 0 00.8.8 11.22 11.22 0 001.32 0 1.28 1.28 0 110 2.55c-1.23 0-2.45-.1-3.68-.1s-2.3 0-3.39.1a1.22 1.22 0 01-1.41-1.23 1.3 1.3 0 011.37-1.32h1.42a.74.74 0 00.8-.8c.09-5 .13-11.31.13-17v-9c0-1.32-.37-1.84-1.55-1.88h-1.08a1.29 1.29 0 01-1.23-1.37c0-1.23.85-1.37 2.49-1.37 3.87 0 4.2 2.5 4.2 3.53 0 6.08-.09 16.07-.09 16.07a.71.71 0 00.8.75c.52 0 .7 0 8.15-5.18.14-.1.18-.19.18-.24s-.09-.14-.33-.14c-.84 0-2 0-2-1.13a1.2 1.2 0 011.27-1.23h6.78a1.16 1.16 0 011.37 1.23 1.24 1.24 0 01-1.32 1.22h-.05c-.66 0-.28-.05-.94-.05a2.3 2.3 0 00-1.18.43c-2.78 1.88-6.4 4.33-8.71 5.84-.28.19-.38.33-.38.47 0 .33 1.23 1.46 9.75 9.28a1.76 1.76 0 001.37.57h.71a1.16 1.16 0 011.32 1.22 1.26 1.26 0 01-1.32 1.32zm15.6.61c-6 0-10.65-4.47-10.65-11.11 0-6.88 5-11.4 10.5-11.4 6.46 0 9.29 5 9.29 7.72 0 1.74-1 3.06-3.44 3.16h-13c-.47 0-.57.19-.57.85 0 5.13 3.39 8.29 7.92 8.29a8.49 8.49 0 006.83-3.11 1.3 1.3 0 01.94-.43 1.43 1.43 0 011.41 1.37c0 1.08-3.29 4.66-9.23 4.66zm-.1-20.16c-4.52 0-7.39 4.05-7.39 5.8 0 .47.42.47 5.89.47 2.45 0 5.09 0 6.4-.05 1.13 0 1.56-.57 1.56-1.32.04-1.37-1.65-4.9-6.46-4.9zm20.87.61c-.75 0-.75.09-.75.66 0 1.79-.14 6.64-.14 10.13 0 3.67.09 6.17 3.77 6.17a12.67 12.67 0 001.32-.1h.19a1.17 1.17 0 011.13 1.23c0 1.22-1.13 1.46-3 1.46-6 0-6-5.14-6-7.21 0-3 .09-8.76.09-11.07v-.75c0-.47-.14-.52-.47-.52h-2.78a1.25 1.25 0 110-2.5h2.73c.43 0 .52 0 .52-.47V74.6a1.37 1.37 0 112.73.1c0 1.36-.09 5.13-.09 5.13 0 .52.09.52.7.52h4.2a1.22 1.22 0 011.32 1.23 1.23 1.23 0 01-1.32 1.27zm21.06 19.5c-7.25 0-11.07-5.51-11.07-11.12 0-6.59 4.66-11.54 10.6-11.54a10.88 10.88 0 015.32 1.41c.1.05.14.09.24.09s.19-.28.23-.51c.05-.57.61-.81 1.13-.81a1.22 1.22 0 011.37 1.18v.1c-.05 1-.05 1.69-.05 2.45s0 1.46.05 2.54v.09a1.22 1.22 0 01-1.37 1.18 1.24 1.24 0 01-1.32-1.13c0-1 .1-1.55-.47-2.21a6.16 6.16 0 00-4.8-1.93c-4.62 0-8.2 3.67-8.2 8.9 0 4.29 2.78 8.76 8.2 8.76a7.42 7.42 0 006-2.73 1.49 1.49 0 011.23-.71 1.5 1.5 0 011.5 1.46c.03 1.37-3.5 4.53-8.59 4.53zm35.57-.58c-1.23 0-2.45-.09-3.68-.09s-2.3 0-3.39.1a1.22 1.22 0 01-1.41-1.23 1.3 1.3 0 011.36-1.32h1.46a.73.73 0 00.76-.8c0-1.56.05-3.35 0-5.09 0-2.45 0-4.67-.09-5.56-.24-3.91-2.73-5.56-5.42-5.56-3.3 0-6.88 2.45-7 6.18v4c0 1.7.05 3.81.05 6a.72.72 0 00.8.8 11 11 0 001.31 0 1.28 1.28 0 11.05 2.55c-1.23 0-2.5-.1-3.68-.1s-2.35 0-3.44.1a1.22 1.22 0 01-1.41-1.23 1.3 1.3 0 011.36-1.32h1.56a.7.7 0 00.75-.8c.05-3.82.09-9.75.09-15.4 0-4-.05-7.83-.05-10.65 0-1.23-.37-1.89-1.6-1.93h-1a1.28 1.28 0 01-1.32-1.31c0-.81.38-1.42 2.4-1.42a9.39 9.39 0 011.18.1 3.28 3.28 0 013.2 3.58v11.4c0 .14 0 .23.09.23s.1 0 .19-.14a8.82 8.82 0 017-3.2c3.91 0 7.68 2.4 7.87 7.53.05 2 .1 7.4.1 11.12 0 .52.23.85.8.85h1.37a1.27 1.27 0 110 2.54zm-69.89-63.15l-14.9-10.11V4.71A4.71 4.71 0 00138.5 0H95.43a4.72 4.72 0 00-4.72 4.71V36a4.72 4.72 0 004.72 4.71h20.34l-7.68 7.73a1.17 1.17 0 000 1.65 1.14 1.14 0 00.82.34 1.18 1.18 0 00.83-.35l7.26-7.21 7.21 7.25a1.18 1.18 0 00.83.35 1.13 1.13 0 00.82-.34 1.17 1.17 0 000-1.65l-7.67-7.72h20.31a4.71 4.71 0 004.71-4.76v-4.7l13.58 9.21a1.14 1.14 0 00.66.2 1.17 1.17 0 00.66-2.13zm-17.24-11.69l-8-5.43a1.17 1.17 0 00-1.31 1.94l9.3 6.31V36a2.38 2.38 0 01-2.37 2.38H95.43A2.39 2.39 0 0193.05 36V4.71a2.38 2.38 0 012.38-2.37h43.07a2.37 2.37 0 012.37 2.37z" data-name="Capa 1"/></g></svg>