<svg xmlns="http://www.w3.org/2000/svg" viewBox="0 0 315.7 50.47"><g data-name="Layer 2"><g data-name="Capa 1"><path class="cls-1" d="M110.22 39.33a1.26 1.26 0 011.23 1.36c0 1.32-1.28 1.46-1.89 1.46-2 0-4-.84-4.29-3.34 0-.28-.09-.47-.23-.47s-.1 0-.19.14a9.8 9.8 0 01-7.87 4c-6.12 0-10.69-4.43-10.69-11.26C86.28 24.59 90.85 20 97 20a9.45 9.45 0 017.44 3.4c.24.32.38.56.47.56s.14-.24.14-.85v-8.48c0-3.2 0-4-1.89-4a5.55 5.55 0 00-.75 0h-.09A1.22 1.22 0 01101 9.46a1.39 1.39 0 011.46-1.41c.54 0 1.16-.05 1.54-.05 3 0 3.77 1.88 3.77 3.91v.19c0 4-.09 11.59-.09 18v6.41c0 2.26.8 2.82 1.84 2.82h.61zM105 31.18c0-5.28-3.49-8.72-8-8.72-4.76 0-8 3.3-8 8.72s3.29 8.67 8 8.67c4.5 0 8-3.44 8-8.67zM130.66 39c0-.14-.09-.23-.19-.23a.23.23 0 00-.18.14 8.72 8.72 0 01-7.16 3.63c-4.76 0-7.64-3.25-7.64-6.5 0-2.36 1.56-4.76 5-5.85a76.85 76.85 0 018.72-1.93c.56-.09.75-.24.75-.56s.05-.52.05-.76c0-2.59-1.09-4.61-4.9-4.61a7.39 7.39 0 00-5.51 2.26 1.32 1.32 0 01-1 .47 1.28 1.28 0 01-1.32-1.27c0-1.79 4-3.82 8-3.82 4.39 0 7.36 1.93 7.36 7.21a12.19 12.19 0 01-.05 1.32c-.14 1.55-.24 4-.23 5.79 0 3.44.33 4.57 2.21 5.23a1.21 1.21 0 01.8 1.18 1.27 1.27 0 01-1.22 1.3 4 4 0 01-3.49-3zm-.66-7.22v-.61c0-.37-.14-.52-.47-.52h-.14C122 31.83 118 32.78 118 36.07c0 2 1.88 4 5 4 2.48-.07 7-1.07 7-8.29zM146.35 23c-.76 0-.76.1-.76.66 0 1.79-.14 6.64-.14 10.13 0 3.67.1 6.17 3.77 6.17.43 0 .85 0 1.32-.09h.19a1.16 1.16 0 011.13 1.22c0 1.22-1.13 1.46-3 1.46-6 0-6-5.13-6-7.21 0-3 .09-8.76.09-11.07v-.75c0-.47-.14-.52-.47-.52h-2.78a1.25 1.25 0 110-2.49h2.73c.42 0 .52-.05.51-.47v-5.31a1.37 1.37 0 112.74.09c0 1.37-.1 5.14-.1 5.14 0 .51.1.51.71.51h4.19a1.25 1.25 0 110 2.5zM171.55 39c-.05-.14-.09-.23-.19-.23a.25.25 0 00-.19.14 8.7 8.7 0 01-7.17 3.61c-4.75 0-7.63-3.25-7.63-6.5 0-2.36 1.55-4.76 5-5.84a75 75 0 018.72-1.94c.56-.09.75-.23.75-.56s.05-.52 0-.76c0-2.59-1.08-4.61-4.89-4.61a7.43 7.43 0 00-5.52 2.26 1.31 1.31 0 01-1 .47 1.27 1.27 0 01-1.31-1.27c0-1.79 3.95-3.82 8-3.82 4.38 0 7.35 1.93 7.36 7.21a12.1 12.1 0 01-.05 1.32c-.14 1.55-.24 4-.24 5.79 0 3.44.33 4.57 2.22 5.23a1.21 1.21 0 01.8 1.18A1.27 1.27 0 01175 42a4 4 0 01-3.45-3zm-.71-7.2v-.62c0-.37-.14-.52-.47-.52h-.14c-7.4 1.18-11.31 2.13-11.3 5.43 0 2 1.88 4 5 4 2.44-.09 6.91-1.09 6.91-8.31zM194.87 21.17c-.05 1-.05 1.65-.05 2.36s0 1.36.05 2.45v.09a1.16 1.16 0 01-1.18 1.13 1.21 1.21 0 01-1.32-1.2c0-3.77-4.19-3.77-4.48-3.77-2.45 0-3.81 1.46-3.81 3a3.62 3.62 0 002.31 3.11c1.32.61 3.58 1.56 5 2.31 2.92 1.51 4.19 3.72 4.19 5.84 0 2.59-2.07 6.08-7.44 6.08a7.43 7.43 0 01-4.67-1.57.57.57 0 00-.33-.19c-.09 0-.14.09-.14.23 0 1.18-.57 1.32-1.13 1.32a1.14 1.14 0 01-1.23-1.13v-.09c.05-1 .1-1.75.1-2.45s-.05-1.42-.1-2.55v-.09a1.24 1.24 0 011.36-1.22 1.21 1.21 0 011.27 1.28c0 .33-.09.56-.09.89 0 1.56 2.35 3.11 5 3.11 2.4 0 4.71-1.37 4.71-3.63 0-2.5-2.07-3.63-7.54-5.89a5.69 5.69 0 01-3.82-5.23c0-2.73 2.22-5.41 6.41-5.41a7.55 7.55 0 014.15 1.27.34.34 0 00.28.09c.23 0 .19-.42.23-.56a1.08 1.08 0 011.09-.76 1.1 1.1 0 011.18 1.13zM221.3 41.89c-1.23 0-2.36-.09-3.4-.09s-2.07.05-3.15.09h-.1a1.2 1.2 0 01-1.27-1.22 1.1 1.1 0 011.27-1.23c1.23 0 1.23-.28 1.23-.33a.39.39 0 00-.1-.19c-2.49-2.44-6.36-6-7.82-7.53a1.67 1.67 0 00-1.41-.56c-.71 0-.76.42-.76 2.87 0 1.13 0 2.64.05 4.9a.72.72 0 00.8.8 11.22 11.22 0 001.32 0 1.28 1.28 0 110 2.55c-1.22 0-2.45-.1-3.67-.1s-2.31.05-3.39.1a1.23 1.23 0 01-1.42-1.23 1.3 1.3 0 011.37-1.32h1.46a.74.74 0 00.8-.8c.09-5 .14-11.31.14-17 0-3.3-.05-6.46-.05-9 0-1.32-.38-1.84-1.56-1.89h-1.08a1.29 1.29 0 01-1.32-1.32c0-1.22.85-1.36 2.5-1.36 3.86 0 4.19 2.49 4.19 3.53 0 6.08-.09 16.06-.09 16.06a.71.71 0 00.8.76c.52 0 .71 0 8.15-5.19.14-.09.19-.18.19-.23s-.09-.14-.33-.14c-.85 0-2 0-2-1.13a1.2 1.2 0 011.27-1.23h.1c1.17.05 2.21.05 3.3.05s2.16 0 3.39-.05a1.14 1.14 0 011.36 1.23 1.24 1.24 0 01-1.32 1.22c-.66 0-.29-.05-.95-.05a2.21 2.21 0 00-1.17.43c-2.78 1.88-6.41 4.33-8.72 5.84-.28.19-.37.33-.37.47 0 .33 1.22 1.46 9.75 9.28a1.74 1.74 0 001.37.56h.7a1.16 1.16 0 011.32 1.22 1.26 1.26 0 01-1.32 1.32zM236.89 42.5c-6 0-10.65-4.47-10.65-11.11 0-6.88 4.94-11.41 10.5-11.41 6.45 0 9.28 5 9.28 7.73 0 1.74-1 3.06-3.43 3.15-1.09.05-2.69.05-4.43.05h-8.58c-.47 0-.56.18-.56.84 0 5.14 3.39 8.3 7.91 8.29a8.43 8.43 0 006.83-3.11 1.37 1.37 0 011-.42 1.44 1.44 0 011.41 1.37c-.05 1.04-3.35 4.62-9.28 4.62zm-.1-20.16c-4.52 0-7.4 4.05-7.4 5.79 0 .47.43.47 5.89.47h6.41c1.13 0 1.55-.57 1.55-1.32 0-1.41-1.65-4.94-6.45-4.94zM257.66 23c-.76 0-.76.09-.76.66 0 1.78-.14 6.64-.14 10.12 0 3.68.1 6.17 3.77 6.17a12.37 12.37 0 001.32-.09h.15a1.16 1.16 0 011.17 1.14c0 1.23-1.13 1.46-3 1.46-6 0-6-5.13-6-7.2 0-3 .09-8.76.09-11.07v-.76c0-.47-.14-.51-.47-.51H251a1.25 1.25 0 110-2.5h2.73c.42 0 .52-.05.52-.47V14.7a1.37 1.37 0 112.74.09c0 1.37-.1 5.14-.1 5.14 0 .52.1.52.71.52h4.19a1.25 1.25 0 110 2.49zM278.72 42.44c-7.26 0-11.07-5.5-11.08-11.11 0-6.6 4.67-11.54 10.6-11.55a10.9 10.9 0 015.33 1.42c.09 0 .14.09.23.09s.19-.28.24-.52c0-.56.61-.8 1.13-.8a1.22 1.22 0 011.36 1.18v5.18a1.21 1.21 0 01-1.36 1.18 1.25 1.25 0 01-1.32-1.13c-.05-1 .09-1.56-.47-2.22a6.22 6.22 0 00-4.81-1.93c-4.61 0-8.19 3.68-8.19 8.91 0 4.29 2.78 8.76 8.2 8.76a7.42 7.42 0 006-2.73 1.47 1.47 0 011.22-.71 1.51 1.51 0 011.51 1.46c.03 1.37-3.5 4.52-8.59 4.52zM314.29 41.87c-1.23 0-2.45-.09-3.68-.09s-2.31 0-3.39.09a1.21 1.21 0 01-1.41-1.22 1.28 1.28 0 011.36-1.32h.05c.61 0 .66.05 1.41 0a.72.72 0 00.75-.8c0-1.55.05-3.34.05-5.08 0-2.45-.05-4.67-.09-5.56-.24-3.91-2.74-5.56-5.42-5.56-3.3 0-6.88 2.45-7 6.17v10a.72.72 0 00.8.8 11.22 11.22 0 001.32-.05 1.28 1.28 0 11.05 2.54H299c-1.22 0-2.5-.09-3.67-.09s-2.36 0-3.44.1a1.23 1.23 0 01-1.42-1.23 1.3 1.3 0 011.37-1.32h.05c.61 0 .75.05 1.5.05a.71.71 0 00.76-.8c0-3.82.09-9.76.09-15.41 0-4-.05-7.82-.05-10.64 0-1.23-.38-1.89-1.6-1.94a8.61 8.61 0 00-1 .05h-.05a1.29 1.29 0 01-1.32-1.32c0-.8.38-1.41 2.41-1.41a11.52 11.52 0 011.17.09 3.29 3.29 0 013.2 3.66v2.69c0 3.82-.05 8.05-.05 8.71 0 .15.05.24.1.24s.09 0 .19-.14a8.83 8.83 0 017-3.21c3.91 0 7.68 2.4 7.87 7.54 0 2 .09 7.39.09 11.12a.73.73 0 00.8.84h1.37a1.27 1.27 0 110 2.54zM67.39 38.62l-14.9-10.11V4.71A4.71 4.71 0 0047.78 0H4.71A4.71 4.71 0 000 4.71V36a4.71 4.71 0 004.71 4.71h20.34l-7.67 7.73A1.17 1.17 0 1019 50.12l7.21-7.25 7.21 7.25a1.18 1.18 0 00.83.35 1.17 1.17 0 00.83-2l-7.68-7.72h20.38A4.71 4.71 0 0052.49 36v-4.7l13.59 9.21a1.17 1.17 0 001.62-.31 1.16 1.16 0 00-.31-1.58zM50.16 26.93l-8-5.43a1.17 1.17 0 00-1.32 1.94l9.31 6.31V36a2.39 2.39 0 01-2.38 2.38H4.71A2.38 2.38 0 012.34 36V4.71a2.37 2.37 0 012.37-2.37h43.07a2.38 2.38 0 012.38 2.37z"/></g></g></svg>