<svg xmlns="http://www.w3.org/2000/svg" width="214.32" height="23.99" viewBox="0 0 214.32 23.99"><defs><style>.cls-1{fill:#fff;}</style></defs><title>linea_subtitulo</title><g id="Layer_2" data-name="Layer 2"><g id="Layer_1-2" data-name="Layer 1"><path class="cls-1" d="M213.88,14.33c.27-.1.63-.56.33-.68l-.85.56Z"/><path class="cls-1" d="M213.56,11.59a2.6,2.6,0,0,0-1.8,1.43c.84-.54.68-.21,1.69-.82.31.13.19.61-.09.84.25-.11.2.48.75.14.22-.82-.17-1.25-1-1.1C213.17,11.85,213.43,11.71,213.56,11.59Z"/><path class="cls-1" d="M182.52,8.84l.24,0A.34.34,0,0,0,182.52,8.84Z"/><path class="cls-1" d="M164,16a.23.23,0,0,0,.13-.27C164.07,15.8,164,15.9,164,16Z"/><path class="cls-1" d="M160.61,16h.2C160.71,15.92,160.63,15.89,160.61,16Z"/><path class="cls-1" d="M182.52,8.84l-.61-.1C182,9.06,182.25,8.87,182.52,8.84Z"/><path class="cls-1" d="M208.83,11.43a.83.83,0,0,0,.35-.14,1.22,1.22,0,0,1-.27,0Z"/><path class="cls-1" d="M191,5.55l.17,0q0-.18.06-.42Z"/><path class="cls-1" d="M198,4.59c-.16,0-.19.81-.24,1.18.08-.35.19-.52.33-.59A2.49,2.49,0,0,0,198,4.59Z"/><path class="cls-1" d="M208.85,7.73l.22,0Z"/><path class="cls-1" d="M186.07,6.6a.92.92,0,0,0-.15-.27A.72.72,0,0,0,186.07,6.6Z"/><path class="cls-1" d="M8.53,19c0-.05,0-.09,0-.14S8.49,19,8.53,19Z"/><polygon class="cls-1" points="0.42 16.58 0.51 16.51 0.38 16.06 0.42 16.58"/><path class="cls-1" d="M154.81,16.22l0,0C155,16.11,154.89,16.15,154.81,16.22Z"/><path class="cls-1" d="M101.82,1.72c.54.87-1.26.72-.4,1.74C101.37,3.12,102.58,2.37,101.82,1.72Z"/><path class="cls-1" d="M208.74,11.26a.9.9,0,0,1-.23-.08A.34.34,0,0,0,208.74,11.26Z"/><path class="cls-1" d="M101.42,3.46h0l.09.1Z"/><path class="cls-1" d="M142,16.07a1.19,1.19,0,0,0,.05.39A.91.91,0,0,0,142,16.07Z"/><path class="cls-1" d="M151.69,18.23l-.25-.09A.51.51,0,0,0,151.69,18.23Z"/><path class="cls-1" d="M136.65,15.8c-.11-.1-.12-.23-.33-.18a.43.43,0,0,0,0,.12C136.44,15.65,136.54,15.63,136.65,15.8Z"/><path class="cls-1" d="M131.37,13.92c0,.07,0,.13,0,.19l.18,0Z"/><path class="cls-1" d="M24.9,19.5a3.52,3.52,0,0,1-.13-.79C24.76,19.31,23.91,19.39,24.9,19.5Z"/><path class="cls-1" d="M209,11c-.12.18-.2.26-.29.26a.47.47,0,0,0,.17,0A.58.58,0,0,0,209,11Z"/><path class="cls-1" d="M134.4,22l-.88-.42A3.6,3.6,0,0,0,134.4,22Z"/><path class="cls-1" d="M67.39,21.34l-.18.19A.22.22,0,0,0,67.39,21.34Z"/><path class="cls-1" d="M130.81,20.75a1.55,1.55,0,0,0-.3-.73.7.7,0,0,0-.18.17Z"/><path class="cls-1" d="M24.77,18.71Z"/><path class="cls-1" d="M18.77,19.88c.81.12.5-1,.74-1.63,1-.2.37.86.64,1.45.64-.21,1.24-1.17,1.7-1.06,0,.18.09.26,0,.47.78-.76,2,.27,2.9-.69a.83.83,0,0,1,.06.29,4.94,4.94,0,0,1,.13-1.51c.38,0,.82-.57.84.16-.23-.06-.3.22-.44.43l.45-.25c.18,1.08-.6.27-.73,1,.82-.21,1.88-.9,2.43-.49-.06,1-1.45.07-.82,1.11l-.85-.54c.42,1.68-.53-.2-.19,1.58,1.15.49,1.44-.26,2.59.25.37-.5.06-.83.43-1.33,1.92-.66.87,2.74,2.39,1.67.46-.59.84-1.82,1.61-1l-.53,1.06c1.16.35,1-1.48,2.08-.48-.3.4-1,.19-.85.36.63,1,.7-.52,1.31-.4l-.06,1c1.29.09,2.84-.37,4.28-.28-.13.28-.43.55-.15.91,1.87-.16,3.83.78,5.52,1.65l.8-.78c.16,0,.24.43.05.57.66.42.11-.54.49-.84.4,0,.46.56.17.79,1.34-.57,3.64-1.17,4.91-.21l-.27.24c1,.41,1.23-1.72,2.14-.86l-.18.14a12.48,12.48,0,0,0,3.4.06,6.36,6.36,0,0,1,3.11.58c.17-1.29,2.37.22,2.22-1.53,1.44.67,1.13,1.06,3.12,1.1.52-.07.44-1.27,1-1.61l.29.87L65.94,21l.8.91a3.63,3.63,0,0,0,.47-.42.68.68,0,0,1-.66-.47,2,2,0,0,1,2.49.12l1.66-1.61c.13.34-.15.61-.31.94.64-1.33.65.77,1.23-.46-.22-.11-.19-.51-.26-.69a2.77,2.77,0,0,0,2.4-1.08l.2.62c1.45-.75,2.55-2.15,3.86-3.14-.65.13-1.2-.83-.88-1.21l.74.66c-.12-.67-.62,0-.56-1,.55-.28,1,.63.91,1.09l.38-.72c.21.21.17.43.35.75-.12-.66,1.59,0,1.3-1.08l.2.21c1.25-.93,1.6-1.59,2.56-2.29-.44-.71.05-.82,0-1.57a18.06,18.06,0,0,0,2.91-.58c.49-.63-.1-.72,0-1.29.36.67,1.28.24,1,.94A21,21,0,0,0,89.42,8c-.24-.27-.47-.36-.44-.63.26-.18.73.18.77.55l0,.09c.75-.7,1.87-.48,2.87,0s1.88.87,2.57,0l-.07.08a7.79,7.79,0,0,1,1.49-.77c.68.2-.44.53,0,1,1.7-1.07,2.46.32,3.9-.18.31,1.22,1.18,1.36,2.16,1.41s2,.19,2.5,1.07l.08-.53c.5-.39.34.41.56.61.09-.41-.24-.57.06-.78,3.24.31,6,2.95,8.84,4.66,1.08.62,1.73-2.24,2.67-.45l-.8.72c2.75-.09,4.71,2.11,7.4,2.18-.23.15-.35.42-.57.32.2.87,1.8.8,2,.26.34.22-.12.52,0,.89.34.6,1.59-.32,1.58.45,0,.12-.22.15-.33.17.45-.19,1.46.71,1.46-.19.76.71,1.85.32,2.39,1,.79-.68,1.39,1,2-.16-.54,1.26,1.26,1.56,2,1.15-.33.32.38.57,0,1,.68.2,1.38.16,1.46-.54.77,2,2.85-.54,3,1.63,2.23-.12,4.26-.3,6.19-.36-.25,1.32-2.11-.18-2.26,1.22,2-.32,3.06-1.14,4.85-.81.46.2-.3.57-.48.79,1.88-.53,3.61.35,5.23-.55,0,.12-.16.27-.33.38.33-.06.78.15.69-.46l-.3.19c-.55-.86,1.12-1.91,1.1-2.41-.35,1.81,1.6.24,1,2.54a.8.8,0,0,0,.32-.86c.33.08.46.3.21.8,1.11-.47.59-1.07,1.6-1.23,0,.29-.13.44-.18.8.42-.67.82-1.3,1.71-1.25,0,.19.13.39-.12.44,1.45-.41,2.06-2.06,3.73-2-.08,1.36.64.25,1.05,1.27l.73-.58-.5-.4c.73-.22,1.09-1.19,1.81-1.07l-.37.62,1.24-.67-.88-.13c.51-.79-.55-1.3.47-1.33-.14.17.69-.24,1.28.22h0c.21-.46.42-.94,1-.88.27.27.36,1.18.53,1.36,0-1,1.5-.89,1.54-2a1.67,1.67,0,0,0,.26.91l0-.82c.41.09.5.18.63.63,1-.27-.85-1.17.5-1.09-.06.1,0,.18-.11.37,1.24-.19,2-1.37,3.12-1.48.75.89-.78.64-.06,1.35,1.39-.83,2.49-2.56,4-2.93h-.31c-.43-1.53,1.36.26,1.78-.73-.13.19.11.91.09.73,1.06-.17,1.81-1.2,3.1-2.23l0,.45c.7.11,1.57-.38,2.25-.41,0-.45.42-.51,0-1,2.58,1.54,3.36-2.36,5.6-.88-.21,0-.41.45-.25.42l1.39-.68c-.24-.65-.27-.37-.69-.82a1.21,1.21,0,0,1,.86-.91c-.61.56.21,1.08.56,1.41-.08-.2,0-.44-.08-.65,1,1.08-.1-1.39,1.13-.75v.36c.38-.25.7-.75,1.16-.7.28.76-.39.41-.34,1.06.6-.11,1.06-1.63,1.7-.9-.24.24-.62.3-.86.54.7.87.74.6,1.19.73h0l1,.36-.27-.24c.67-2.13,1.52-.44,2.57-1.78-1,1.28-.18.74-.27,1.64.25.25.63.54.51.79.5-.72.73.62,1.46-.4,0,.29.5.07.32.78.62-.18-.09-.51,0-.87,1.09-.88,2,1.43,3.53.43,1.27-.3,1.74-1.08,3-1.2.21.56-.66.9-.66.9a1.41,1.41,0,0,0,1.51.63c-.21.18-.19.43-.18.79.43.12.75-.86,1.08-.18a6.12,6.12,0,0,1-.91.83c.56,0,1.25-.22,1.87-.18-.14.51-.68.5-1,.7.63.06,1.53.39,2.14-.13l-.16-.47c.2.11-.3.64-.51.66-.75.21-.48-.62-.36-.9l.45,0c.51-1.63-1.55-.62-2.19-1l.85-1-1.21.58c0-.36.12-1.05.58-1.05-.33-.81-.66.19-.89-.65,0-.13,0-.17.1-.2-.24,0-.48.1-.71.15.2-.21.2-.85.5-.57-.85-1-2,.31-2.11-.67l.11,0c-1.58.06-.38.84-1.68,1.63-.08-.78-.17-1.58-.3-2.36l-.31.88c-.14-.06-.44-.17-.32-.52-.67.53,0,.4-.39.93-.62-1-2,.13-2.08-1.3-.32.67.66.58-.16,1-.12-1.55-.92.17-1.56-.53.23-.8.88-.37.21-1.09-.45,1.35-1.35-.31-2-.05,0,1.08-1.25.52-2.19.94,0-.36-1.87-.42-2.83-.65V5.28c0,1.11-1,1.06-1.58,1.39a1.29,1.29,0,0,1,.29-1.27l-.63.12a1.13,1.13,0,0,1-.63.81V5.49c-.85.22-1.48,1.29-2.67,1.06.15.75,1.35,1.84.41,2.61-.14-.39-.37-1.06-.13-1.3-.08.08-.24.42-.48.3l.26-.78c-.56-.17-.1.62-.49.66-.15-.57-.4-.33-.47-.79.08-.09.4.14.48-.12a1.86,1.86,0,0,1-1.37-.53c.13.31.22.75-.07.92-.79.29-.48-.59-1.05-.73-.08.45-.73.23-.46,1.06-.24.08-.41-.29-.58-.48-.3.51-1.91.8-1.11,1.5l.12,0,0,.06h0c-1,1.32-2.91.61-4.06,1.51l-.11-.28c-.63.64-1.63.92-1.92,1.73-.22.1-.74-.26-.79-.62-.49.46-.42.79-1.45.71.37-.72-.39-.32.44-.6-.85.1-1.21-.26-1.69.83,0-.81-.95-.61-1.21-.25l.74.26a2.64,2.64,0,0,1-1.12.46l-.2-1c-2-.43-1.94,3.09-3.89,1.7-.13.81,1,.11,1,1-.76.17-2-.85-2.24-.76-1.15-.14-.36,1.69-1.51,1.73a1.22,1.22,0,0,1,.06,1.71c-.77.14-1.38-1.08-1-1.5.16-.09.28,0,.31.1.19-.2.43-.45,0-.71l0,.36c-.47-.21-1.42.17-1.38-.46-.42.51,0,.63.41.66-1.06-.16-1.41.45-2.44.43.2.14.46.49.31.54-1.49,0-.41.81-1.32,1.23-.67-.37-.14-1.28-1-.6-.67-.21-.35-.88-.2-1.21-.68.86-1.67,0-2.15-.09l.37-.37a1,1,0,0,1-.65.3l.39.65c-.28-.08-.5,0-.55-.33-.18.5.43,1.11,0,1.84-.41-.29-1,.58-1.29-.34,1.15.14-.26-.9.63-1.21a.65.65,0,0,1-.65.09.23.23,0,0,1,.07-.26c-1.13-.7-.31,1.11-1.41,1.23.08-.55-.35-1-.51-.84.43,0,.3.87-.07,1.29-.74-.37-.75.35-1.13.33l.44.17c-.11.53-.48.49-1,.68-.06-.4.45-.31.26-.48-.54,1-1.27-1-2-.38-.35-.37,0-1-.31-1.24-.87.65-.86-.75-1.76-.21.18.7.26.57-.45,1.18a15.5,15.5,0,0,0,1.52-.42l-1,1c.46,0,1-.42,1.25-.29-.48.56-.43.39-.24,1-.56-1.1-1.31.63-2-.23l.21-1.74c-.94-.94-2,.61-3.32,0l.39.36c-.31.67-.88,0-1.39.13.17-.57-.07-.85-.18-1.25-.07.43-1-.28-1.39.82l-.43-.9c-1-.58-1.73,1.33-2.76.77.51-.51.15-1.06,1-1.27-.35-.12-.64-.33-.77.06-.09-.42-1.22.44-1.38-.2-.23.19-.47.76-.86.59a.54.54,0,0,1,.09-.28c-.09.28-.76.17-.61.9-.52-2-3.15-1-3.55-2.84a11.93,11.93,0,0,1-2.57-.57c.12-.14.12-.26.23-.15-.76-.91-1.24,1.31-2.11.28-.2-1.11.78-.23.57-.71.6-1.84-1.43-.3-1.73-1.66l.23,0c-.31-.85-1.67.07-2.54-.46a.61.61,0,0,0,.12-.27,5.15,5.15,0,0,1-3.36.27c.58-.58.57-.19.7-1-.44-.08-.37,1.18-1.26,1-.09-.49-.53-1.08-.28-1.86l.77.29c0-1.15-1-.4-1.32-.74l.24-.4c-1.23-.37-1.69.69-2.93.1v.38c-1.14.78-.33-.84-1.35-.33l.23-1.17a14.82,14.82,0,0,1-2.92.29,6.84,6.84,0,0,1,2.7-.9c-.46-.19-1.57-.57-2-.1.23,0,.57-.22.69,0a2.77,2.77,0,0,1-2.71.44c.92-2.07-2.18-1.46-2.36-3.3-2,.32-3.27-1.44-5.45-1.69.36,1.89-.63-.07-.86,1.74-.49,0-.66,0-.68-.18-.41-.45-.83-.93-1.27-1.35-.28-.57.53-.34.55-.73-1.08-.3-.35-.82-1-1.39.07.66-.51.88-1.13.58l.81.92c-1.63.81-1.21-1.65-2.88-.84L97,.13c-.81.16-3.14,0-3.85,1.46-.16-.2-.39-.69,0-.83C91,.49,89,2.94,87.34,2.31l0-.46c-.34.21-.41.91-1,.67,0-.19,0-.48-.16-.44-.15.22-.68,1.09-1.22,1l.22-.62c-2,.21-2.36,2.13-3.53,3.16-.62-1.16-2.16-.77-2.9-.53l-.08-.17c-2,1.08-2.4,3-3.56,4.51-1.79-.42-3.42,1.9-5.25,2.16.35.06.55.87.37,1.15-.47,0-.44,1.36-1,.31L69.4,13c-.87-.84-1.34-.17-1.89.06l.65,1.43c-1.28-.68-2.09-.09-2.88.54s-1.61,1.05-2.3.23c-.26.49-.72.61-1,1.1l-.18-.82a11.7,11.7,0,0,0-2.89.43l.18-.64c-.72.05-.61,2.55-1.34,2.71l-.33-1.22c-1.37.1-2.74-1-4.07.22,0-.19.07-.55.28-.61-.64,0-2.44-1-2.29.78,0-1.13-1.41-.18-2.23.26l.19-.81c-.73,1-.78,1.26-1.72,1.45-.2-.13-.12-.68.15-.44-.67-.51-.65.72-1.47.18l.39-.49c-.73-.15-.7.14-1.19.7-.52.29-1.38-.4-1.38-1.16-.16.43-.66,1-1.07.68a.61.61,0,0,1,.27-.51c-1.14-.75-2,.65-2.71-.29a.78.78,0,0,0-.06-.51,6.29,6.29,0,0,1,1.67.4c.13-.75-.63-1,.17-1.95-.72.47-2,1.53-2.73,1a1,1,0,0,1-.06-.28l.1-.07a.49.49,0,0,0-.51,0,1.7,1.7,0,0,0-.6-.35c0-.63-.85-.5-1.23-.61-.13.83-.62.6-.27,1.37,0-.07.1-.09.37-.07a.37.37,0,0,0,.18,0l0,.06,1,.14c-.39.36-.78.64-1.13.1-.31.49-.64,1-.81,1.22-.33-1.24-1.25-2.07-1.26-2.8-1.31.21-2.94-.27-4,1.12-.38.13-.31-.52-.4-.79.24-.11.47,0,.62-.25-.77.27-2.1-.23-2.47.81-.79-.65.68-.9-.57-1l.23-.3c-2.1-2.19-4.37,2.1-6.69-.54.17.16.26.23.27.42a11,11,0,0,0-4.71-.62,8.92,8.92,0,0,1-4.75-.73c-.9-.28-1,.42-1.5,1l-.23-.89-.87,1.07c-1.2.76-2.48-2-4-.34l.31.57c-.61,0-1.8.63-1.83-.07,0,.12-.07.65-.37.38l-.11-.46L3.05,15c-1.19,0-.3-1.85-2-1.47-.59.36-1.31,1.8-1,2a.84.84,0,0,1,.87.54l-.45.39c.36,1.33.51,2.76,2,3.35l.55-1,.45.57-.66.23c.57.5.64-.1.81-.55a1.29,1.29,0,0,0,.53.62l.47-1.51c.21.5-.1,1.14.48,1.29.24-.71-.63-1.08-.09-1.66.53.52.52,1.07.88.46a.69.69,0,0,1-.07.76c.33-.48,1.06-.34,1.16-1.1.54.71,1.41-.41,1.52.9.1-.32.62-1.18,1-1.22-.6,1.59,1.49,0,1.39,1.73.46-1.41,1.86-.75,2.82-1.49-.05.11-.16.33-.25.25.54.15.69.58,1,.86.11-1.16,1-1.38,1.47-2.08.6,1.15-.48,1.35-.33,2.44,0-.95,1.2-.89,1-1.69.46.72.42.36.6,1.34.21-1.46.49-.2,1-1.05.67.8.06,1.38.91,1C19.54,19.45,18.77,19.88,18.77,19.88Zm20.13,1h0l-.42,0Zm1.7.29a4.12,4.12,0,0,0-.74-.16c0-.29.11-.57.28-.53C40,20.61,40.39,20.84,40.6,21.13Zm-2.51-6.36c.29-.06.35.12.35.29a2.67,2.67,0,0,0-.48,0l-.05.1A1.89,1.89,0,0,1,38.09,14.77Z"/><path class="cls-1" d="M37.42,15.76c-.05,0-.07,0-.12,0a.72.72,0,0,0,.12.21l.14-.24Z"/><path class="cls-1" d="M182.8,8.87h0a.28.28,0,0,1,.11.08A.25.25,0,0,1,182.8,8.87Z"/><polygon class="cls-1" points="65.5 22.39 65.43 22.19 65.32 22.42 65.5 22.39"/><path class="cls-1" d="M192.58,9.13a.41.41,0,0,0,.16.19A.61.61,0,0,0,192.58,9.13Z"/><path class="cls-1" d="M196.47,8.82l.57.27A2.29,2.29,0,0,0,196.47,8.82Z"/><path class="cls-1" d="M199.43,9.15a2.23,2.23,0,0,0,.07-.36h0Z"/><path class="cls-1" d="M152.2,23.8a.35.35,0,0,0-.13.05C151.77,24,152,24,152.2,23.8Z"/><path class="cls-1" d="M166.81,18.33a3.06,3.06,0,0,1-.31.54C166.77,18.83,167,18.77,166.81,18.33Z"/><polygon class="cls-1" points="134.5 22.05 134.5 22.04 134.4 22 134.5 22.05"/><path class="cls-1" d="M165.84,19.1a.6.6,0,0,0,.66-.23A1,1,0,0,0,165.84,19.1Z"/><path class="cls-1" d="M210.89,12.68l.09.1a.45.45,0,0,1,.09-.1Z"/><path class="cls-1" d="M211.07,12.68h.17C211.18,12.64,211.13,12.62,211.07,12.68Z"/><path class="cls-1" d="M211.61,12.69h-.37C211.32,12.75,211.41,12.85,211.61,12.69Z"/><path class="cls-1" d="M207.86,10.66l-.15.27A1.44,1.44,0,0,0,207.86,10.66Z"/><path class="cls-1" d="M206.77,10.37c.23.16.42.81.82.77l.12-.21C207.41,11.26,207.18,10,206.77,10.37Z"/><path class="cls-1" d="M202.52,5.65l1.06.4c-.14-.35-.34-.82.18-.82C202.47,4.07,204,6,202.52,5.65Z"/><path class="cls-1" d="M199.1,5c.61-.14,0-.47,0-.65C198.74,4.65,198.66,4.73,199.1,5Z"/><path class="cls-1" d="M175.66,11.12l-.26-.72C175.05,10.67,175.52,10.67,175.66,11.12Z"/><polygon class="cls-1" points="173.1 16.54 173.68 16.8 173.59 16.08 173.1 16.54"/><polygon class="cls-1" points="168.52 12.62 168.65 12.44 168.1 12.97 168.52 12.62"/><path class="cls-1" d="M132.57,13.58l-.21.93C132.69,14.45,133.12,13.49,132.57,13.58Z"/><path class="cls-1" d="M116.52,7.83c0-.5-.34-1-.79-.66C116.07,7.38,116.29,7.87,116.52,7.83Z"/><polygon class="cls-1" points="66.92 13.76 67.05 13.36 66.66 13.82 66.92 13.76"/></g></g></svg>