<svg xmlns="http://www.w3.org/2000/svg" width="589.81" height="310.8" viewBox="0 0 589.81 310.8"><defs><style>.cls-1{fill:#fff;}</style></defs><title>titulo_especial</title><g id="Layer_2" data-name="Layer 2"><g id="Layer_1-2" data-name="Layer 1"><path class="cls-1" d="M130.4,18.58q-4.19.74-9.75,5.85a38.49,38.49,0,0,0-8.36,10.49q-2.69,5.56-5.48,18.94c-.86,3.9-1.58,6.91-2.13,9a19.88,19.88,0,0,1-2.14,5.29c-.86,1.43-2.1,3.25-3.71,5.48a91.07,91.07,0,0,0-6.6,9.48c-.92,1.54-3.45,3.35-7.56,5.43a35.71,35.71,0,0,1-11.38,3.76,12.34,12.34,0,0,1-4.83.14,12,12,0,0,1-4-2.37q-5.38-4.64-5.81-15t4.23-22.38a186.91,186.91,0,0,0,9-29.91c.93-4.27,1.34-6.9,1.25-7.89a6.59,6.59,0,0,0-2.09-3.53l-2.78-2.6-4.83,2.42a26.29,26.29,0,0,0-8.73,6.78,13.77,13.77,0,0,1-3.53,3.48,3.42,3.42,0,0,1-2.88-.33Q44.5,19,46.59,13.75a16.6,16.6,0,0,1,7.94-8.36A26.3,26.3,0,0,0,60.1,1.77C61.53.41,63.94-.14,67.35.14a13.68,13.68,0,0,1,8.08,3,27.76,27.76,0,0,1,6.82,10.17q2.37,6,.23,8.22-1,1.39-2.6,9A170.4,170.4,0,0,1,75.43,48q-3.17,10.13-4.74,12.54a9,9,0,0,0-1.76,5.62,20.66,20.66,0,0,1-1.3,6.92,10.36,10.36,0,0,0,.46,7.8q1.77,4,4.36,3a25.88,25.88,0,0,1,4.46-1.58Q79,81.91,86.48,74t8.54-11a66.5,66.5,0,0,0,2-9.38,78.36,78.36,0,0,1,6.27-20.48q4.88-10.91,9-13.51a44.51,44.51,0,0,0,8.55-7.34q6.21-6.21,11.42-5,4.37,1,2.78,6.78A5.6,5.6,0,0,1,130.4,18.58Zm19.08,15.87A5.18,5.18,0,0,0,153.06,32a2.87,2.87,0,0,0-.14-3.43c-.74-.93-2.12-1.4-4.13-1.4a8.32,8.32,0,0,0-5,1.4c-.93.74-1.37,1.3-1.3,1.67a7.21,7.21,0,0,0,1.86,2.32Q146.89,35.11,149.48,34.45Zm270.88,0A5.14,5.14,0,0,0,423.93,32a2.86,2.86,0,0,0-.14-3.43c-.74-.93-2.12-1.4-4.13-1.4a8.34,8.34,0,0,0-5,1.4c-.93.74-1.36,1.3-1.3,1.67a7.21,7.21,0,0,0,1.86,2.32Q417.76,35.11,420.36,34.45ZM540.1,74.85a4.61,4.61,0,0,1-.18,1.21,4.91,4.91,0,0,1-.51,1.16,8.12,8.12,0,0,1-.84,1.07,10.13,10.13,0,0,1-1,1c-.34.28-.73.57-1.16.88l-1.12.79-1.11.79c-.44.31-.74.53-.93.65a28.19,28.19,0,0,1-4.64,2.51l-.93.46a16.47,16.47,0,0,1-4.46,3.53,15.93,15.93,0,0,1-4.92.93c-2.11.62-3.56.56-4.37-.18-.24,0-1-.07-2.18-.19s-2-.2-2.46-.23-1.1,0-2,0a8.4,8.4,0,0,0-2.33.28,11.32,11.32,0,0,0-1.9.74,5.23,5.23,0,0,1-3.06.65q-1.86-.09-6.41-.74c-2.17-.31-4-.53-5.48-.65h-1c-.37,0-.78,0-1.21-.05a2,2,0,0,1-1-.32,2,2,0,0,1-.48-.49c-.34.16-.66.34-1,.49l-2.23,1.11-.46.56a12.15,12.15,0,0,1-7.24,3,15.42,15.42,0,0,1-4.6,0,23,23,0,0,1-4.5-1.63,25,25,0,0,1-5.67-3.34,2.24,2.24,0,0,0-1.58-.65,7.07,7.07,0,0,0-2.41,1.49,25.44,25.44,0,0,1-13.51,4.59q-7.85.51-10.26-3.11a9.53,9.53,0,0,1-1.13-3.82,60.63,60.63,0,0,1-6.53,3.92A17.14,17.14,0,0,1,414,93a22.76,22.76,0,0,1-9-2.74A25,25,0,0,1,399.26,86c-.52.4-.94.7-1.28.92s-.79.51-1.35.88l-1.11.74A30.5,30.5,0,0,1,391,91c-1,.43-2.67,1-5,1.81s-5.35,1.64-9,2.6a33.53,33.53,0,0,1-10.68,1.11c-3.47-.21-6.07-1.19-7.8-2.92a19.47,19.47,0,0,1-2.33-3,43.79,43.79,0,0,1-2.27-3.81,31.26,31.26,0,0,1-1.44-3.06,17.51,17.51,0,0,1-.91-4.16,5.4,5.4,0,0,1-.3.49,21.56,21.56,0,0,1-2.55,3,38.76,38.76,0,0,1-3.9,3,23,23,0,0,1-4.55,2.46q-6.14,2.88-8.82,4.18-4.65,2.15-8.22,1.21t-8.41-5.76q-3.9-3.9-4.59-5.34t-.7-5.52A38.83,38.83,0,0,1,311.62,65c1.24-4.27,1.73-6.6,1.48-7s-2.88,1.63-7.52,6-9.19,9-13.65,13.84c-1.14,1.24-2.13,2.34-3,3.32A6.64,6.64,0,0,1,289,82a2.94,2.94,0,0,1-.33,1.67,8.7,8.7,0,0,1-.88,1.44,9.46,9.46,0,0,1-1.35,1.35q-.88.74-1.44,1.11l-.61.41-.32.34a9.11,9.11,0,0,1-2.83,1.81l-.14.05A28.37,28.37,0,0,1,277.58,92l-.51.23-.69.28-.75.28-.6.23-.23.09a37.51,37.51,0,0,1-12.17,2.7c-4.45.25-7.7-.16-9.75-1.21-.25-.12-1.24-.56-3-1.3a18.92,18.92,0,0,1-3.71-2q-2.14-1.39-4.09-6c-.18-.42-.35-.84-.52-1.26l-1.1.75-1.3.89c-.5.3-1.24.77-2.23,1.39l-2.23,1.39A14.28,14.28,0,0,1,228.32,91a12.59,12.59,0,0,1-4.73,0,17.5,17.5,0,0,1-4.65-2.46,27.31,27.31,0,0,1-6.31-5.85c-.44-.57-.83-1.13-1.19-1.69a8.67,8.67,0,0,1-.72.58,27.19,27.19,0,0,1-2.78,1.67,2.48,2.48,0,0,0-.65.37,5.82,5.82,0,0,1-2.23.84,7.17,7.17,0,0,1-5.39-2.23,7,7,0,0,1-1.39-2l-.28-.46a4.54,4.54,0,0,0-1.58-1.77,2,2,0,0,0-1.85.19c-.93.49-2,2-3.16,4.55A14.84,14.84,0,0,1,190,85.53q-1.77,2.59-3.07,3-1.66.84-4.55,2.6a14.57,14.57,0,0,1-6.68,2.32,33.18,33.18,0,0,0-5.39.75,4.88,4.88,0,0,1-.93.09,4,4,0,0,1-1.76-.37,12.81,12.81,0,0,1-3.25-2.51,14.74,14.74,0,0,1-3.16-3.76,11.37,11.37,0,0,1-.63-1.56,57.12,57.12,0,0,1-8.24,5.14A17.12,17.12,0,0,1,143.12,93a22.76,22.76,0,0,1-9-2.74,25.1,25.1,0,0,1-7.29-6q-4.36-5.2-2.6-13.84c.13-.43.38-1.92.75-4.45s.76-4.79,1.16-6.74a10.18,10.18,0,0,1,1.34-3.85A4.5,4.5,0,0,1,130.21,54a11.13,11.13,0,0,1,3.95-.05,14.36,14.36,0,0,1,3.9,1.21,5,5,0,0,1,2.55,2.37,4.05,4.05,0,0,1,0,3.34q-2.15,4.45-2.14,6.22a7.67,7.67,0,0,1-1.86,4.18,8.4,8.4,0,0,0-1.9,4.5c-.22,1.77.08,2.93.88,3.49.68.24,1,1,1,2.32q0,1.67,2.42,3.8a6.25,6.25,0,0,0,2.65,1.77,9.93,9.93,0,0,0,3.57-.47A43.55,43.55,0,0,0,155,81a40.1,40.1,0,0,1,4-2.59,23.5,23.5,0,0,1,0-7.21A28.24,28.24,0,0,1,163,61.76q4.27-6.87,8.08-9.94a23.07,23.07,0,0,1,9.38-4.36,13.25,13.25,0,0,0,4.74-2c2.16-1.43,4.08-1.95,5.75-1.58s3.47,1.58,5.58,3.8a27.54,27.54,0,0,1,2.41,3,7.1,7.1,0,0,1,1,2.13,11.77,11.77,0,0,1,.28,3,112.58,112.58,0,0,0,.56,12.82A9,9,0,0,0,202,72.76a18.92,18.92,0,0,0,3.39,3.48l.28-.18a23.14,23.14,0,0,0,2.41-1.77c.23-.17.45-.33.67-.47a28.19,28.19,0,0,1-.25-3.8A45,45,0,0,1,209,63.2c.31-2,.69-4.49,1.16-7.43A63.79,63.79,0,0,0,211,48.2c.06-.8.14-1.64.23-2.51s.18-1.65.28-2.37.23-1.56.42-2.55.32-1.76.41-2.32.3-1.38.61-2.46.51-1.84.6-2.28.31-1.25.65-2.46.56-2,.65-2.27.34-1.13.74-2.46.64-2.12.7-2.37a40.25,40.25,0,0,1,1.76-5,15.48,15.48,0,0,1,2.28-3.29,30.13,30.13,0,0,1,2.6-2.65c.77-.68,1.81-1.55,3.11-2.6.49-.37,1.35-1.05,2.55-2s2.09-1.69,2.65-2.09,1.32-1,2.28-1.67a26.94,26.94,0,0,1,2.78-1.86c.9-.53,1.87-1,2.93-1.53q3.52-1.77,5.48-1.3a4.58,4.58,0,0,1,2.5,1.62,7,7,0,0,1,1.4,2.83A19.44,19.44,0,0,1,249,6.83,12.94,12.94,0,0,1,249,9.34c-.06.89-.11,1.65-.14,2.27a14.54,14.54,0,0,1-.42,2.51c-.24,1.05-.42,1.81-.51,2.27a20.84,20.84,0,0,1-.74,2.42c-.4,1.14-.65,1.87-.74,2.18s-.37,1.1-.84,2.37-.73,2-.79,2.18a41.37,41.37,0,0,1-3.71,8.17q-.93,1.3-5.39,9.75t-6.31,10.13a60.94,60.94,0,0,0-5.58,6q-3.06,3.72-5.29,7c-1.48,2.16-2.17,3.52-2,4.08,0,1,.86,3.25,2.6,6.78q3.15,6,7.33,6a8.63,8.63,0,0,0,1.72-.19,18.58,18.58,0,0,0,2.23-.65c.9-.31,1.47-.49,1.72-.56a15.73,15.73,0,0,0,3.34-1.67c1.39-.85,2.7-1.76,4-2.7a29.53,29.53,0,0,1-1-7.14,49.68,49.68,0,0,1,1.39-10.22c.06-.24.17-.77.33-1.57s.29-1.41.41-1.82.28-.95.47-1.67a16.62,16.62,0,0,1,.56-1.81c.18-.49.4-1,.65-1.53a16,16,0,0,1,.74-1.44,34.69,34.69,0,0,1,3.16-3.9A15.25,15.25,0,0,1,258.92,42q8,.65,8.63,5.29a18.52,18.52,0,0,1-.41,7.48,25.26,25.26,0,0,1-2.42,6.36q-1.44,2.51-4,6.5c-1.7,2.66-2.93,4.7-3.67,6.13Q253,81.45,253,82.93c0,.8.78,1.95,2.33,3.44A6.49,6.49,0,0,0,257.94,88a12.29,12.29,0,0,0,4.23-.28,71.8,71.8,0,0,0,10.49-2.32c.64-.22,1.4-.51,2.3-.87a4.55,4.55,0,0,1,.16-1A25.66,25.66,0,0,1,278.28,78q1.49-2.51,5.76-11.47T291.37,54a9.19,9.19,0,0,1,1-1.21,6.79,6.79,0,0,1,3.07-1.81,4.74,4.74,0,0,1,3.53.14,2.92,2.92,0,0,1,.79,2c.15,1,.38,1.61.69,1.67s1.49-.5,3.16-1.67q4.28-3,13.47-4.92a15.82,15.82,0,0,1,4.83-.75A6.32,6.32,0,0,1,324.71,49a7.44,7.44,0,0,1,2.23,5.2,8.67,8.67,0,0,1-2,5.76,47.78,47.78,0,0,0-4.09,9.2c-1.67,4.58-2.51,7.73-2.51,9.47a8.19,8.19,0,0,0,1.26,4,12.46,12.46,0,0,0,3.06,3.62,5.53,5.53,0,0,0,3.3,1.44q2.22,0,9.38-3.72A65.93,65.93,0,0,0,346.53,77c2.05-1.55,3.5-2.28,4.37-2.19a1.11,1.11,0,0,1,.41.14v-.18q.84-17.55,15.05-30.09a21.31,21.31,0,0,1,4.92-3.39,19.38,19.38,0,0,1,5.94-.6q8,0,12.21,3.53a9.18,9.18,0,0,1,3.21,9.28,10.17,10.17,0,0,1-1.25,3.58,4.58,4.58,0,0,1-2.74,1,9,9,0,0,1-5.44-1.16c-1.7-1-2.36-2-2-3.11a2.7,2.7,0,0,0-.61-2.83,3.51,3.51,0,0,0-2.83-1.44q-3.06,0-9.33,6.45t-6.27,9.71a8.24,8.24,0,0,1-1.3,3.53q-1.39,2-1.3,7c.12,3.28.65,5.61,1.58,7q2.22,3.35,7.47,4.6a22.86,22.86,0,0,0,9.62.41,22.42,22.42,0,0,0,5-1.48,37.16,37.16,0,0,0,9-5.11,11.41,11.41,0,0,1,3-1.73,18.61,18.61,0,0,1-.21-9.51c.12-.43.37-1.92.74-4.45s.76-4.79,1.16-6.74a10,10,0,0,1,1.35-3.85A4.5,4.5,0,0,1,401.09,54a11.07,11.07,0,0,1,3.94-.05,14.32,14.32,0,0,1,3.91,1.21,5.12,5.12,0,0,1,2.55,2.37,4.06,4.06,0,0,1-.05,3.34q-2.13,4.45-2.13,6.22a7.67,7.67,0,0,1-1.86,4.18,8.33,8.33,0,0,0-1.9,4.5c-.22,1.77.07,2.93.88,3.49.68.24,1,1,1,2.32q0,1.67,2.41,3.8a6.31,6.31,0,0,0,2.65,1.77,10,10,0,0,0,3.58-.47A44,44,0,0,0,425.84,81a40.46,40.46,0,0,1,3.93-2.56,16,16,0,0,1,1.5-5.89q1.39-2.5,2.13-3.72c.56-.8,1.09-1.54,1.58-2.22s1.33-1.83,2.51-3.25a71.15,71.15,0,0,1,9.19-9.94,25.61,25.61,0,0,1,6.13-3.48A28.4,28.4,0,0,1,460.2,48,11.8,11.8,0,0,1,467,49a8.43,8.43,0,0,1,4.46,6.37,20.78,20.78,0,0,1-.19,8.72,36.94,36.94,0,0,1-2.88,7.94A35.05,35.05,0,0,0,466,79.77c-.52,2.79-.51,4.62,0,5.48q1.77,3.52,11.61.47a2.69,2.69,0,0,1,.74-.1,3.39,3.39,0,0,0,.84-.37c1-.54,2-1.07,3-1.59a20.44,20.44,0,0,1-.91-4.82,4.27,4.27,0,0,1,0-1.76c.31-1.55.81-2.51,1.49-2.88a5.82,5.82,0,0,1,1.39-.37,2.76,2.76,0,0,0,1.49-.65A4.79,4.79,0,0,0,487.08,71a11.58,11.58,0,0,0,.65-3.25,7.33,7.33,0,0,1,.28-2,4.42,4.42,0,0,1,1.44-1.2c.71-.44,1.09-.68,1.16-.75a8.3,8.3,0,0,0,1.95-2.5,53.4,53.4,0,0,0,1.48-5.2,64.81,64.81,0,0,0,1.67-7.06c.44-2.35.75-4.37.93-6q.47-5.76,1.26-6.78c.52-.68,1.51-1,3-1a6.26,6.26,0,0,1,3.76,1.25A4.3,4.3,0,0,1,506,38.12a11.85,11.85,0,0,1,.88,1.91c.18.55.42,1.33.69,2.32s.48,1.64.61,1.95a64.29,64.29,0,0,1,2.41,9.29c.19,1.11.4,2.73.65,4.87s.53,4.07.84,5.8a27,27,0,0,0,1.3,4.83,15.27,15.27,0,0,1,1,7.34,27.59,27.59,0,0,0-.28,3.81,3.85,3.85,0,0,0,1.16,2.88,4.47,4.47,0,0,0,3.58.92,7.9,7.9,0,0,0,2-.46,14,14,0,0,0,1.72-.74,13.14,13.14,0,0,0,1.76-1.21c.71-.56,1.19-.94,1.44-1.16s.78-.7,1.58-1.44a44.53,44.53,0,0,1,4.32-3.39c1.95-1.39,3-2.18,3.29-2.37,1.37-1.17,2.56-1.65,3.58-1.44S540.1,73.06,540.1,74.85ZM219.78,49.59c.31.25.82,0,1.53-.79a25.36,25.36,0,0,0,2.6-3.62,44.6,44.6,0,0,0,3-5.9Q230,33.16,230,32.6c0-.19,1-2.29,2.88-6.32s2.88-6.37,2.88-7.24c0-1.8-.8-2-2.41-.56a12.62,12.62,0,0,0-3.07,3.81,49.8,49.8,0,0,1-4.36,6.87,7.62,7.62,0,0,0-1.86,4.55,4.37,4.37,0,0,1-1.39,3.35q-1,.93-2.37,6.31T219.78,49.59ZM188.34,68.26A10.84,10.84,0,0,0,186,65.38q-3.06-3-3.06-4.92a7.37,7.37,0,0,0-.84-3.07,5.66,5.66,0,0,0-1.67-2.32,2,2,0,0,0-1.11-.46,1.15,1.15,0,0,0-.65.18,21.72,21.72,0,0,0-3.81,3.44,29,29,0,0,0-4.69,6.41A36.66,36.66,0,0,0,167,72c-.68,2.17-.81,3.75-.37,4.74a11.61,11.61,0,0,1,.83,4.73,16.29,16.29,0,0,0,.74,3.72,2.57,2.57,0,0,0,1.4,1.39,8.65,8.65,0,0,0,3.34.47,13.86,13.86,0,0,0,1.86-.1,5.19,5.19,0,0,0,1.39-.18,7.24,7.24,0,0,0,1.21-.47c.43-.25.86-.52,1.3-.83s1-.72,1.57-1.21c2.36-1.86,3.69-3.34,4-4.46a10.88,10.88,0,0,1,2.23-3.71,8.59,8.59,0,0,0,1.95-4.74A5.34,5.34,0,0,0,188.34,68.26ZM191.13,57c0-2.41-.25-3.74-.74-4a2.56,2.56,0,0,0-.37.46q-.47.84.09,3.81a8.69,8.69,0,0,0,.74,2.69A9.91,9.91,0,0,0,191.13,57Zm65.1.84a2.23,2.23,0,0,0-1.91-2.28,2.67,2.67,0,0,0-3,.88,13.5,13.5,0,0,0-1.85,3.35A29.51,29.51,0,0,0,248,64.36c-.31,1.55-.59,3-.84,4.45a12.32,12.32,0,0,0-.18,3.58q.18,1.44.93,1.44c.55,0,2.1-2.42,4.64-7.24S256.23,58.85,256.23,57.86Zm204.94,2.32A5.47,5.47,0,0,0,458,58.6a8.53,8.53,0,0,0-4,.19c-1.3.31-3.27,1.54-5.9,3.71a24.41,24.41,0,0,0-5.34,5.57q-1.86,2.7-3.16,4.83a14.58,14.58,0,0,0-2.13,6.5q-.56,4.27.46,5.57c.62.75,2,1.12,4.09,1.12a17.12,17.12,0,0,0,5.94-1,8.46,8.46,0,0,0,4-3.9c1.48-2.91,2.69-5.27,3.62-7.06Q458,69.92,458,68.44a3,3,0,0,1,.79-1.9,2.08,2.08,0,0,0,.42-2.09c-.31-1,.12-1.79,1.3-2.41.68-.38,1.05-.68,1.11-.93S461.54,60.55,461.17,60.18Zm43.27,4.92q-2.31-6.78-2.88-6.78c-.43,0-.8.87-1.11,2.6a9.75,9.75,0,0,1-1.39,3.53,52.62,52.62,0,0,0-3.53,6.73q-2.41,5.16-2,5.71a5.4,5.4,0,0,0,1.85,1.4,12.51,12.51,0,0,0,3,1.11,7.27,7.27,0,0,0,2.74.19q4.18-.93,4.92-4.14T504.44,65.1ZM290.63,155.78a5.16,5.16,0,0,0,3.58-2.41,2.89,2.89,0,0,0-.14-3.44c-.74-.92-2.12-1.39-4.13-1.39a8.39,8.39,0,0,0-5,1.39c-.93.75-1.36,1.3-1.3,1.68a7.21,7.21,0,0,0,1.86,2.32Q288,156.44,290.63,155.78Zm77.91,0a5.16,5.16,0,0,0,3.58-2.41,2.89,2.89,0,0,0-.14-3.44c-.74-.92-2.12-1.39-4.13-1.39a8.39,8.39,0,0,0-5,1.39c-.93.75-1.36,1.3-1.3,1.68a7.21,7.21,0,0,0,1.86,2.32Q365.95,156.44,368.54,155.78Zm187.4,40.4a4.65,4.65,0,0,1-.19,1.21,4.21,4.21,0,0,1-.51,1.16,8.83,8.83,0,0,1-.84,1.07,10.13,10.13,0,0,1-1,1c-.34.28-.72.57-1.16.88s-.8.58-1.11.79l-1.12.79c-.43.31-.74.53-.93.65a27.79,27.79,0,0,1-4.64,2.51l-.93.46A16.45,16.45,0,0,1,539,210.2a15.94,15.94,0,0,1-4.93.93c-2.1.62-3.56.56-4.36-.19-.25,0-1-.06-2.18-.18s-2-.2-2.46-.23-1.1-.05-2-.05a8.33,8.33,0,0,0-2.32.28,10.61,10.61,0,0,0-1.91.74,5.2,5.2,0,0,1-3.06.65c-1.24-.06-3.37-.31-6.41-.74q-3.24-.47-5.48-.65h-.77l-.11.09a29.54,29.54,0,0,1-4.55,2.51l-.51.23-.69.28-.75.28-.6.23-.23.09a37.56,37.56,0,0,1-12.17,2.7q-6.69.36-9.75-1.21c-.25-.12-1.24-.56-3-1.3a18.92,18.92,0,0,1-3.71-1.95q-2.14-1.4-4.09-6c-.19-.42-.35-.84-.52-1.26l-1.11.75-1.3.88-2.23,1.4-2.22,1.39a14.4,14.4,0,0,1-6.41,2.51,12.64,12.64,0,0,1-4.74,0,17.48,17.48,0,0,1-4.64-2.46,27.1,27.1,0,0,1-6.31-5.85,22.35,22.35,0,0,1-1.89-2.86,38.37,38.37,0,0,1-10.05.35l-9-.46-3,5.67a23.61,23.61,0,0,1-6.59,8.4,22.61,22.61,0,0,1-9.66,3.67q-6.31,1-10.21-.47a13.8,13.8,0,0,1-5.25-3.62,14.64,14.64,0,0,1-2.73-4.35c-1.21.73-2.45,1.44-3.77,2.12a16.94,16.94,0,0,1-9.24,1.81,22.44,22.44,0,0,1-9-2.74,24.74,24.74,0,0,1-7.28-6,12.63,12.63,0,0,1-1.06-1.46,27.41,27.41,0,0,1-4,2.11l-.92.46a16.62,16.62,0,0,1-4.46,3.53,15.93,15.93,0,0,1-4.92.93c-2.11.62-3.56.56-4.37-.19-.25,0-1-.06-2.18-.18s-2-.2-2.46-.23-1.1-.05-2-.05a8.33,8.33,0,0,0-2.32.28,10.52,10.52,0,0,0-1.9.74,5.25,5.25,0,0,1-3.07.65q-1.86-.09-6.4-.74-3.26-.47-5.48-.65h-1c-.37,0-.77,0-1.2,0a1.85,1.85,0,0,1-.91-.27c-1.18.72-2.4,1.42-3.69,2.08a16.94,16.94,0,0,1-9.24,1.81,22.44,22.44,0,0,1-9-2.74,24.74,24.74,0,0,1-7.28-6,14,14,0,0,1-3.1-9.81c-.26,0-.53-.08-.76-.13a23.28,23.28,0,0,1-5.66-1.58,21.52,21.52,0,0,1-3.86-2.69c-1.95-1.55-3.32-2.38-4.13-2.51a5.82,5.82,0,0,0-2.74.47,6.82,6.82,0,0,0-2.18,1.53,20.23,20.23,0,0,0-1.91,2.37A20.86,20.86,0,0,0,242,195.9q-.65,1.31-1.44,2.79a25.05,25.05,0,0,1-1.44,2.41,18.52,18.52,0,0,1-4.13,3.53c-2.14,1.49-4.23,2.86-6.27,4.13s-3.13,2-3.25,2.09c-.8.62-2.4,1-4.78,1.26a23.68,23.68,0,0,1-7.2-.47c-2.41-.52-4-1.38-4.64-2.55a7.89,7.89,0,0,1-.79-2.56c-.22-1.2-.37-2.35-.47-3.43-.06-.78-.14-1.68-.22-2.67a7,7,0,0,1-.57,1,21,21,0,0,1-2.55,3,37.36,37.36,0,0,1-3.9,3,23.22,23.22,0,0,1-4.55,2.46q-6.13,2.88-8.82,4.18-4.65,2.15-8.22,1.21t-8.4-5.76c-2.6-2.6-4.14-4.38-4.6-5.34a14.58,14.58,0,0,1-.7-5.52,39.11,39.11,0,0,1,2.14-12.35c1.24-4.28,1.73-6.6,1.49-7s-2.88,1.63-7.53,6-9.19,9-13.65,13.84-6.68,7.66-6.68,8.4a3.06,3.06,0,0,1-1.16,2,9.12,9.12,0,0,1-2.84,1.82,5,5,0,0,1-3,.41c-1.42-.18-2.41-1.3-3-3.34a6.25,6.25,0,0,1-.19-3.62,26.12,26.12,0,0,1,3.16-5.57q1.49-2.52,5.76-11.47c.48-1,.94-1.94,1.4-2.85-1.26.84-3.46,1.47-6.65,1.87a67,67,0,0,0-12.07,2.42,41.31,41.31,0,0,1-9.84,1.95h-.19c-1.85.12-2.86.6-3,1.44s.11,3.57.79,8.22a3.59,3.59,0,0,0,.19,1.2,18.75,18.75,0,0,1,.09,4.92,6.13,6.13,0,0,1-1.48,3q-3.9,4-9.1.46c-1.92-1.24-2.64-2.58-2.14-4s.37-2.4-.37-2.83q-.84-.56-4.64.74l-.47.37a9.33,9.33,0,0,1-3.34,2.42q-1.3.65-1.77.93l-3.8,2.32-.65.28-2.79.37a7.2,7.2,0,0,0-2.6.28,33.56,33.56,0,0,1-4.18.74,5.38,5.38,0,0,1-1.39,0,18.37,18.37,0,0,1-6.55-1.67,24.57,24.57,0,0,1-6-3.81q-2.69-2.33-5-4.69A39.26,39.26,0,0,1,50,196.78q-1.86-2.73-2.83-4.22a28.77,28.77,0,0,1-1.63-2.79,5.68,5.68,0,0,1-2.46-2.6A15.85,15.85,0,0,1,42,183.46a11.18,11.18,0,0,0-1-3.35,1.8,1.8,0,0,1,1.86-2.5l5.39.55q4.08-1.38,5.94-.65t4.27,4.09a9.56,9.56,0,0,0,3,2.83,21,21,0,0,0,4.37,1.81l.46.1a7.92,7.92,0,0,1,1.58.83l.47.28c.43,0,1.73.12,3.9.37,2.35.31,3.71.47,4.08.47H79.7c2.6,0,4,0,4.36-.1l1.49-.28c2-.3,3.43-.55,4.36-.74l-.28-.18A2.56,2.56,0,0,0,91,185.5c-1-2.6-1.91-5.31-2.74-8.13s-1.67-6.23-2.51-10.26a51,51,0,0,1-1.11-11.79,25.84,25.84,0,0,1,2-9.94l.19-4.08a16.91,16.91,0,0,1,.37-2.7,15.07,15.07,0,0,0,.28-1.76q.09-.84.93-4.74l.37-1.48a24.86,24.86,0,0,0,.37-3.9,2.1,2.1,0,0,0-.28-.74,5.4,5.4,0,0,1-.56-3.35,10.33,10.33,0,0,1,1.49-3.53c.37-.62.84-1.44,1.39-2.46s1-1.78,1.3-2.27a18.34,18.34,0,0,1,1.3-1.77,13,13,0,0,1,1.86-1.85,17.6,17.6,0,0,1,2.51-1.68q8.07-4.63,13.28-4.64a10.34,10.34,0,0,1,6.68,2.51,11.48,11.48,0,0,1,7.15,4.83q3.54,5.3,1,14.11-4.26,16.53-5.75,19.32c-.37.68-1.27,3.13-2.7,7.33q-1.67,4.83-2.32,6.23l.1.09-.19.19a5.39,5.39,0,0,1-.84,1.3q-.64.65-3,3.71a69.2,69.2,0,0,0-3.43,10.49l.18-.18q-.65,5.94,3.53,6.87l.28-.19q1.2.66,13.47-1.39a108.36,108.36,0,0,1,11-1.49,5.57,5.57,0,0,1,3.85,2,5.29,5.29,0,0,1,1.71,2.62,45.26,45.26,0,0,1,4.74-7.45,9.06,9.06,0,0,1,1-1.2,6.7,6.7,0,0,1,3.06-1.81,4.69,4.69,0,0,1,3.53.14c.37.24.63.9.79,2s.39,1.61.7,1.67,1.48-.5,3.15-1.67q4.28-3,13.47-4.92a15.82,15.82,0,0,1,4.83-.75,6.32,6.32,0,0,1,2.78,1.67,7.4,7.4,0,0,1,2.23,5.2,8.67,8.67,0,0,1-2,5.76,48.12,48.12,0,0,0-4.09,9.2c-1.67,4.58-2.5,7.73-2.5,9.47a8.17,8.17,0,0,0,1.25,4,12.61,12.61,0,0,0,3.06,3.62,5.53,5.53,0,0,0,3.3,1.44q2.23,0,9.38-3.72a66.56,66.56,0,0,0,11.23-7.05c2.05-1.55,3.5-2.28,4.37-2.19a1.24,1.24,0,0,1,.61.26s0-.09,0-.12a12.48,12.48,0,0,1,.84-7.24c.31-.5.7-2.35,1.16-5.57s1.1-6.77,1.9-10.64a32.14,32.14,0,0,1,2.88-8.77q3.81-6.41,9.94.56,1.49,1.66,1.11,6a24.34,24.34,0,0,1-2.23,8.64q-1.11,2.59-2.78,7.8t-2.32,6.5c-1.3,3.4-1.24,6,.18,7.89.31.44.9.56,1.77.37a11.6,11.6,0,0,0,2.83-1.06,24.52,24.52,0,0,0,2.79-1.68,10,10,0,0,0,1.81-1.53q2-2.13,5.43-9t4-9.7a15,15,0,0,1,3-5.9,18.88,18.88,0,0,1,5.06-4.5,8,8,0,0,1,5.75-1.12,7,7,0,0,1,4.83,3.9,21.58,21.58,0,0,1,1.54,5.85,12.74,12.74,0,0,0,2.55,6.41,10.4,10.4,0,0,0,3.76,2.88,17.5,17.5,0,0,0,3.14.93l0-.1c.37-2.53.76-4.78,1.16-6.73a10.18,10.18,0,0,1,1.34-3.85,4.56,4.56,0,0,1,2.74-1.4,11.37,11.37,0,0,1,3.95,0,14.36,14.36,0,0,1,3.9,1.21,5,5,0,0,1,2.56,2.36,4.12,4.12,0,0,1,0,3.35q-2.14,4.46-2.14,6.22a7.67,7.67,0,0,1-1.86,4.18,8.4,8.4,0,0,0-1.9,4.5c-.22,1.77.08,2.93.88,3.48.68.25,1,1,1,2.33q0,1.66,2.42,3.8a6.35,6.35,0,0,0,2.65,1.77,9.93,9.93,0,0,0,3.57-.47,37.46,37.46,0,0,0,7.75-4.27,20.61,20.61,0,0,1-.55-3.53,4,4,0,0,1,0-1.76c.31-1.55.8-2.51,1.48-2.88a6.09,6.09,0,0,1,1.4-.37,2.8,2.8,0,0,0,1.48-.65,4.77,4.77,0,0,0,1.39-2.14,11.24,11.24,0,0,0,.65-3.25,8.31,8.31,0,0,1,.28-2,4.79,4.79,0,0,1,1.44-1.21,12.19,12.19,0,0,0,1.16-.74,7.93,7.93,0,0,0,2-2.51,48.47,48.47,0,0,0,1.49-5.2,64.63,64.63,0,0,0,1.67-7q.65-3.54.93-6,.47-5.76,1.25-6.78a3.49,3.49,0,0,1,3-1,6.29,6.29,0,0,1,3.77,1.25,4.19,4.19,0,0,1,1.34,1.53,10.71,10.71,0,0,1,.88,1.91c.19.55.42,1.33.7,2.32s.48,1.64.61,1.95a65.86,65.86,0,0,1,2.41,9.28c.19,1.12.4,2.74.65,4.88s.53,4.07.84,5.8a26.21,26.21,0,0,0,1.3,4.83,15.27,15.27,0,0,1,1,7.34,27.56,27.56,0,0,0-.28,3.8,3.78,3.78,0,0,0,1.16,2.88,4.41,4.41,0,0,0,3.57.93,8.06,8.06,0,0,0,2.05-.46,14.71,14.71,0,0,0,1.71-.74A12.53,12.53,0,0,0,336.6,203c.71-.56,1.19-.94,1.44-1.16l1.58-1.44a38.85,38.85,0,0,1,3.21-2.59,21.84,21.84,0,0,1,.46-6.05c.12-.43.37-1.92.74-4.46s.76-4.78,1.16-6.73a10.18,10.18,0,0,1,1.34-3.85,4.58,4.58,0,0,1,2.74-1.4,11.37,11.37,0,0,1,4,0,14.36,14.36,0,0,1,3.9,1.21,5,5,0,0,1,2.56,2.36,4.12,4.12,0,0,1-.05,3.35q-2.14,4.46-2.14,6.22a7.67,7.67,0,0,1-1.86,4.18,8.4,8.4,0,0,0-1.9,4.5c-.21,1.77.08,2.93.88,3.48.68.25,1,1,1,2.33q0,1.66,2.42,3.8a6.35,6.35,0,0,0,2.65,1.77,9.93,9.93,0,0,0,3.57-.47,42.69,42.69,0,0,0,9.31-5.35,22,22,0,0,1,.39-5.88q.84-5.2,3.35-15t3.43-14.35a52.32,52.32,0,0,1,3.35-12.16q2.68-6.14,4.27-9.47,1.49-3.16,3.71-7.43a60.76,60.76,0,0,0,2.88-6.88q1.13-3,1.81-4.45c.47-1,1.13-2.25,2-3.76a14,14,0,0,1,3.11-3.81,21.11,21.11,0,0,1,4.23-2.74,11.88,11.88,0,0,1,5.15-1.35,7,7,0,0,1,4.69,1.72,10.09,10.09,0,0,1,2.51,6.5,25.86,25.86,0,0,1-.52,7.57,49.62,49.62,0,0,1-2.08,6.73,140.73,140.73,0,0,0-4.93,13.75,27.18,27.18,0,0,1-2.6,6.77q-7.23,12.83-7.52,13.38a148.76,148.76,0,0,1-10.4,15.69,25.54,25.54,0,0,0-4.55,11.19q-1,6.36,1.67,7.48a2.31,2.31,0,0,0,.93.55c.56.25,1.08.5,1.58.75a8.13,8.13,0,0,1,1.49.83,4.29,4.29,0,0,0,2.36.65,6.85,6.85,0,0,0,2.65-1.11c1.18-.87,2.74-3.17,4.69-6.92s2.92-6.45,2.92-8.13a6.3,6.3,0,0,1,1.86-4.27,5.32,5.32,0,0,1,3.9-2q2.5,0,6.5,4.27a15.88,15.88,0,0,0,3.53,2.83,5.45,5.45,0,0,0,2.37.79,29.93,29.93,0,0,0,3.48-.37c1.29-.19,2.54-.31,3.75-.39-.05-.71-.08-1.44-.08-2.21a45.07,45.07,0,0,1,.46-6.82c.31-2,.7-4.49,1.16-7.43a59.84,59.84,0,0,0,.79-7.57c.07-.81.14-1.64.24-2.51s.18-1.66.27-2.37.24-1.56.42-2.55.33-1.76.42-2.32a23,23,0,0,1,.6-2.46c.31-1.09.51-1.85.61-2.28s.31-1.25.65-2.46.56-2,.65-2.27.34-1.13.74-2.46.63-2.12.7-2.37a39.65,39.65,0,0,1,1.76-5,15.48,15.48,0,0,1,2.28-3.29,28.78,28.78,0,0,1,2.6-2.65c.77-.68,1.81-1.55,3.11-2.6q.74-.55,2.55-2c1.21-1,2.09-1.69,2.65-2.09l2.27-1.68a29.83,29.83,0,0,1,2.79-1.85c.9-.53,1.87-1,2.92-1.53,2.36-1.18,4.18-1.61,5.48-1.3a4.55,4.55,0,0,1,2.51,1.62,6.89,6.89,0,0,1,1.39,2.83,17.28,17.28,0,0,1,.42,2.28,13.78,13.78,0,0,1,.05,2.51c-.07.89-.11,1.65-.14,2.27a14.54,14.54,0,0,1-.42,2.51c-.25,1.05-.42,1.81-.51,2.27a20.84,20.84,0,0,1-.74,2.42c-.41,1.14-.65,1.87-.75,2.18s-.37,1.1-.83,2.37-.73,2-.79,2.18a41.21,41.21,0,0,1-3.72,8.17q-.92,1.31-5.38,9.75t-6.32,10.12a62.38,62.38,0,0,0-5.57,6q-3.06,3.72-5.29,7t-2,4.09c0,1,.86,3.25,2.6,6.78q3.15,6,7.33,6a8.63,8.63,0,0,0,1.72-.19,18.58,18.58,0,0,0,2.23-.65c.9-.31,1.47-.49,1.72-.56a15.73,15.73,0,0,0,3.34-1.67c1.38-.85,2.7-1.76,4-2.71a29.45,29.45,0,0,1-1-7.13,49.68,49.68,0,0,1,1.39-10.22c.06-.24.17-.77.33-1.58s.29-1.4.41-1.81.28-1,.47-1.67.37-1.31.55-1.81.41-1,.66-1.53a16,16,0,0,1,.74-1.44,32.91,32.91,0,0,1,3.16-3.9,15.25,15.25,0,0,1,12.72-4.64q8,.65,8.63,5.29a18.48,18.48,0,0,1-.42,7.47,25.13,25.13,0,0,1-2.41,6.37c-1,1.67-2.29,3.83-4,6.5s-2.93,4.7-3.67,6.12q-4.08,7.71-4.09,9.2c0,.8.78,2,2.33,3.43a6.42,6.42,0,0,0,2.64,1.68,12.3,12.3,0,0,0,4.23-.28,72.08,72.08,0,0,0,10.49-2.32c1.1-.39,2.6-1,4.48-1.77a21.59,21.59,0,0,1-.91-4.83,4.27,4.27,0,0,1,0-1.76c.31-1.55.81-2.51,1.49-2.88a6,6,0,0,1,1.39-.37,2.83,2.83,0,0,0,1.49-.65,4.77,4.77,0,0,0,1.39-2.14,11.58,11.58,0,0,0,.65-3.25,7.79,7.79,0,0,1,.28-2,4.79,4.79,0,0,1,1.44-1.21c.71-.43,1.1-.68,1.16-.74a8.22,8.22,0,0,0,1.95-2.51,51.2,51.2,0,0,0,1.49-5.2,67,67,0,0,0,1.67-7q.65-3.54.93-6c.31-3.84.72-6.1,1.25-6.78a3.49,3.49,0,0,1,3-1,6.24,6.24,0,0,1,3.76,1.25,4.12,4.12,0,0,1,1.35,1.53,10.71,10.71,0,0,1,.88,1.91c.19.55.42,1.33.7,2.32s.48,1.64.6,1.95a64.64,64.64,0,0,1,2.42,9.28c.18,1.12.4,2.74.65,4.88s.52,4.07.83,5.8a27,27,0,0,0,1.3,4.83,15.27,15.27,0,0,1,1,7.34,29.22,29.22,0,0,0-.28,3.8,3.82,3.82,0,0,0,1.16,2.88,4.44,4.44,0,0,0,3.58.93,7.9,7.9,0,0,0,2-.46,14.94,14.94,0,0,0,1.72-.74A13.13,13.13,0,0,0,540.2,203c.71-.56,1.19-.94,1.44-1.16l1.57-1.44a44.53,44.53,0,0,1,4.32-3.39q2.93-2.08,3.3-2.37c1.36-1.17,2.55-1.66,3.57-1.44S555.94,194.38,555.94,196.18ZM440.7,170.92c.3.25.82,0,1.53-.79a25.36,25.36,0,0,0,2.6-3.62,46.51,46.51,0,0,0,3-5.9q3.06-6.12,3.06-6.68c0-.19,1-2.29,2.88-6.32s2.88-6.37,2.88-7.24c0-1.8-.81-2-2.42-.56a12.76,12.76,0,0,0-3.06,3.81,48.82,48.82,0,0,1-4.37,6.87A7.66,7.66,0,0,0,445,155a4.36,4.36,0,0,1-1.4,3.34q-1,.93-2.36,6.32T440.7,170.92Zm-51.31,2q.93,0,3.16-5l5-10q3.84-7.75,5.06-10.54,3.62-8.82,3.62-9.85,0-3-5.11,2.6c-2.17,2.6-3.25,4.28-3.25,5,0,1.17-.83,3.19-2.51,6a53.31,53.31,0,0,0-3.8,8.83,55,55,0,0,0-2.42,8.86C388.74,171.25,388.83,172.59,389.39,173ZM85.92,198.5l-4.09-.65L73.66,196a22.56,22.56,0,0,0-5.11-1.2,6,6,0,0,1-2-.47,11.8,11.8,0,0,0-2.88-.65,15.67,15.67,0,0,1-5.57-1.39,4.22,4.22,0,0,0-1.3-.46c-.56-.13-1-.22-1.39-.28h-.65a63.73,63.73,0,0,1,4.55,4.82l.42.42a4.38,4.38,0,0,0,.46.42c.15.13.36.28.6.46a5.71,5.71,0,0,0,.7.47l.93.51,1.07.6a18.78,18.78,0,0,0,6.5,2.7l7.33.46Zm22.66-62.59a43.32,43.32,0,0,1,1.11-6.31c0-.19.06-.87.19-2,.18-1.42.31-2.38.37-2.87a13.11,13.11,0,0,0,.23-4.09c-.09-2-.36-3.19-.79-3.62l-.18.09a4.27,4.27,0,0,0-.56.37,7.33,7.33,0,0,0-.74.65l-.75.65-.74-.18q-2.5,1.58-4.18,11.42c-1.55,5.26-2.38,8.2-2.51,8.82a5.56,5.56,0,0,1-.65,2A39.76,39.76,0,0,0,97.71,145q-1,3.53-1.58,16.53l.28,5.57.84,3.53c.25-.56.49-1.17.74-1.86l2.23-5.84,4.18-16.44Zm208.1,50.52q-2.32-6.78-2.88-6.78c-.43,0-.8.87-1.11,2.6a9.56,9.56,0,0,1-1.4,3.53,52.27,52.27,0,0,0-3.52,6.73c-1.61,3.44-2.3,5.34-2,5.71a5.46,5.46,0,0,0,1.86,1.4,12.35,12.35,0,0,0,3,1.11,7.26,7.26,0,0,0,2.74.19q4.17-.93,4.92-4.14T316.68,186.43Zm160.46-7.24a2.22,2.22,0,0,0-1.9-2.28,2.67,2.67,0,0,0-3,.88,13.48,13.48,0,0,0-1.86,3.35,30.59,30.59,0,0,0-1.48,4.55c-.31,1.54-.59,3-.84,4.45a12.32,12.32,0,0,0-.18,3.58q.18,1.44.93,1.44t4.64-7.25Q477.15,180.68,477.14,179.19Zm43.14,7.24q-2.32-6.78-2.88-6.78c-.44,0-.81.87-1.12,2.6a9.57,9.57,0,0,1-1.39,3.53,53.24,53.24,0,0,0-3.53,6.73q-2.42,5.16-2,5.71a5.46,5.46,0,0,0,1.86,1.4,12.28,12.28,0,0,0,3,1.11,7.28,7.28,0,0,0,2.74.19q4.19-.93,4.93-4.14T520.28,186.43Zm-206,122c-4.45-.08-9.13-.18-15.06-.28C304.86,308.25,309.83,308.34,314.3,308.4ZM14,287.89l17.85-.23-17.26.07Zm445.62-31.26c-1.7-.1-3.4-.16-5.1-.25v.29C456.21,256.65,457.91,256.63,459.61,256.63Zm104.7,10.81h0C564.3,267.8,564.29,268.19,564.31,267.44ZM483.53,307v0Zm0,0h0ZM199.24,261.24l-4.21.08v0Zm-8.65,45.53h0v-.23h0Zm263.92-50.39,0-1.78h0l0,1.78ZM186.34,261.5c-7.18.14-13.17.27-18.15.39l17.84-.35Zm76.73-.69,0-.43h0l0,.43Zm191.44-4h0v-.11h0ZM563.12,268.1h0l0-.61h0ZM585,284.49h-.18l.05,2.59-18.79,0-1,.07.18,0,.1,5.76,1,.38c1.91.7,1.33.51-1-.22v.58c2.2.48,4.11.93,5.79,1.35a57.65,57.65,0,0,0-13,4.28l5.65.86-8.61,1.09v2.37l-10.35.27-.1,1.74h-.27l-.06,1c-3.16-.38-6.3-.7-9.42-1q-14.59-.09-29.17-.69l-1.55,0c-7.15.18-14,.34-20.62.49l0,1.22,0-1.22h-.07V306l-5.78-.35-2.06.13-.14,3.64c-27.45.39-53.9-.06-79.65-1.23l-1.67.07v-.14h-.28v-.19c-3.87.13-8.15.26-12.81.39l-.1-1.43-3.38,0h-.34l0-1.08H376v-.08l-9.54.42-.06.76h-.27l-.2,2.73-.84-.1v.08h-.07l-.05,1.2h0l.06-1.2c-5-.46-10.4-.92-16.12-1.36-2.33.06-4.75.12-7.4.17l-4.46-.07,1.48.12,3-.05,7.67.13-8.86.05q12.34.94,24.65,2.21v0q-12.94-1.33-25-2.24l-5.65,0v.08l-1.23-.08c-7.44,0-12.91-.07-18.77-.18,6.91.1,12.58.12,17.4.09l-4.84-.3c-12.94-.15-28.47-.3-44.88-.61-7.55-.14-15.29-.31-23-.51l0,.66h0l0-.66-3.32-.08-3.12,0v-.07l-4.75-.13c3.72.3,7.44.61,11.16,1v.12c-4-.39-8-.76-12-1.11-2-.05-3.94-.12-5.9-.18-7.69.21-17.4.5-28.67,1v-2l-.4,0v-.81l-3.74-.2h-.2v0c-1.58-.08-3.17-.14-4.76-.21l-12.33.41-.07,1.88h-.27l0-.57h0l0,.57h-3.83c1.27.08,2.55.14,3.82.23l0,.55c-5.47-.33-11.1-.57-16.86-.72v.16l-8.85-.19-17.58,0h-.14l-9,.62,0,.81c-11.4.78-21.65,1.13-31.17,1.19l-6.68.75-.07-.74q-5.89,0-11.47-.21c-9.51-.29-18.44-.82-27.31-1.55L31.8,309l-.45-4-1.22.14-.09-1-.35,0L29.26,299l-11.49,0-1.51.13V299h-.34l-.46-9,.34,0v-.14l2.13,0,15.78-1.29-.08-.87H31.84l1.78,0,0-.29-16.91,0,16.52-4.34,0-.28-18.6,5h-.21l18.81-5-.1-1.07c-4.23,0-6.89-.15-8.35-.3-4.74-.5,2.91-1.48,9.8-2.46l-4.29-.5-2.92.44v-.39h0v0l-.5,0V278l-.5-.06L0,274.9l26.06-3.68v-2.69l.75-.06V267.4l1,.07-.19-4.64,2.5-.16L30,259c24.75-.42,50.49-.52,36.2.36,27.78-.64,47.93-1.18,61.45-1.63l.09,1.33c9.11-.38,19.85-.73,38.39-1.08l.18,3.91,1.84,0-1.84,0,.05,1.14,4.53.24,2.72-.1q6.28-.82,12.38-1.67l3.5-.08.12,0-3.31.07,5.72-.81c.64-.2,1.29-.39,1.93-.6l.07.32.74-.1.23,1-.76,0v0l.75,0,.47,2.08,3.46-.06.32-.06v.05l1.39,0c-1,0-2-.08-3-.1,1.61,0,3.22,0,4.83,0v-2.71c13.42-.81,19.87-.76,22.93-.75s2.75.16,2.68.3.11.28,4.15.45c2.62.13,6.87.22,13.7.56l17-.91v.2c-4.79.31-9.35.62-13.29.9l1.45.08c4.1-.22,7.29-.35,10.44-.5l1.42-.05,0,.81h0l0-.81c6.15-.23,12.69-.44,26.16-.07l0,1.16,14.62-.43q13.13-1.08,26.28-1.8c22.79-1.25,45.64-1.77,68.53-2l9.6-.63.05-1.65c6.36-.06,12.78,0,19.22.09l0-.13,2.93.17,1.15,0c9.66-.62,17.74-1.14,22.8-1.51v.53c-4.46.33-10.12.73-16,1.15q8,.24,16.07.63v.29l-3.61,0,2.48.14,1.14-.07v.13h0v-.13h.05v.14l49.86,2.81-.14,3.13.37,0,0,.76c14,.69,18.87,1.13,5.83,1l10.27.26,5.73-.34,0-.32c3.23.19,6.48.3,9.73.34,1.55-.12,3.12-.21,4.69-.26v-.16l-3-.35c-.46.16-.93.32-1.39.5l-.09-.67-.82-.09-5.15-.59,4.82-1.82.77-.26-.1-.71,1.79.18a34.64,34.64,0,0,1,25.48,2.54l.86.08h.41v0h-.12l.12,0v.21h0V263l.31,0v.15l.29,0-.16.67c.32.19.64.38,1,.58l2.43,1.58-2.87.3-.73.08,0,1-.29,0c0,.59,0,.77,0,0h0v-.32h0v.32h0v.05l-.41,0-.76,0v0h0v0l-2.79.11,0,.27,2.79.23,0,.25h0l0-.25h.15v.22l4.21-.41,3.47-.27-.11,3.66.89.12,18.09,2.64-18.22,1.47-.9.07-.06,2,14-.68,0,2.59h.18Zm-305.66,22h0l0-.34h0Zm-199,0,1.19,0v-.1Zm26.41,1.33q4.23-.06,8.46-.18c4.36-.39,8.94-.74,13.71-1h-5Q115.17,307.19,106.69,307.82Zm455-29.78c-1.7-.21-3.41-.39-5.13-.58l0,.84Zm-1.33-10.44h-.05l0,.26h0Zm4-.16h0Zm-23.39-3.12H541v-.14h-.07Zm-36.63-1.42,0,.71.37,0,0-.71Zm-215-.56v.32C294.11,262.46,293.3,262.36,289.25,262.34ZM166,259.92h0l0,.31h0ZM30.1,262.67h0l0-2.76c11-.58,12.65-.93,0-.79ZM26.81,278v-.58l-.74-.05v-.46L8.18,275l17.88-2.7v-1L.63,274.91l25.68,3Zm7.79.92.23,0,0-.73c-2.32.35-2.67.4-.18,0l-3.67.16-.61.09Zm19.27,28.29-22.09,1.27L31.39,305h0l.41,3.67Zm15.66-.16q8.06.45,16.13.65l0-.4q-6.57-.12-13.16-.4Zm30.37.83,0-.16-3.11.15Zm.31,1.33-.07-.81h0l.08.81Zm107.84-4.85v-.27l-4,.13Zm3.94.18v-.24c-.88,0-1.75.07-2.62.12ZM254.8,307l-2.3-.07V307Zm81.71,1.34-2.19,0v.19l3.9,0Zm40.94-2.18v-.35h0v.35Zm16.76,1.75v0h0v0Zm175.43-21.53,2.54.35-5.41.37C579.38,286.91,579.71,286.61,569.64,286.35ZM564.45,263v0h0v0ZM64.23,277.37v-2.21a.34.34,0,0,0-.35-.35H54.42a.31.31,0,0,0-.24.1.34.34,0,0,0-.11.25v19.67a.34.34,0,0,0,.11.25.31.31,0,0,0,.24.1h9.46a.34.34,0,0,0,.35-.35v-2.21a.34.34,0,0,0-.35-.35H57.6a.13.13,0,0,1-.15-.15v-5.53c0-.09,0-.14.15-.14h3.72a.37.37,0,0,0,.25-.1.33.33,0,0,0,.1-.25v-2.24a.34.34,0,0,0-.35-.35H57.6a.13.13,0,0,1-.15-.15v-5.5c0-.09,0-.14.15-.14h6.28a.34.34,0,0,0,.35-.35Zm7.19,18A5.41,5.41,0,0,0,75.33,294a5.05,5.05,0,0,0,1.5-3.83v-15a.34.34,0,0,0-.35-.35H73.8a.31.31,0,0,0-.24.1.34.34,0,0,0-.11.25v15a2.4,2.4,0,0,1-.56,1.66,1.87,1.87,0,0,1-1.47.64,1.83,1.83,0,0,1-1.46-.64,2.45,2.45,0,0,1-.55-1.66V288a.33.33,0,0,0-.1-.25.37.37,0,0,0-.25-.1H66.38a.35.35,0,0,0-.24.1A.34.34,0,0,0,66,288v2.15A5.08,5.08,0,0,0,67.52,294,5.36,5.36,0,0,0,71.42,295.41Zm18.48-18v-2.21a.34.34,0,0,0-.11-.25.31.31,0,0,0-.24-.1H80.09a.33.33,0,0,0-.25.1.37.37,0,0,0-.1.25v19.67a.37.37,0,0,0,.1.25.33.33,0,0,0,.25.1h9.46a.31.31,0,0,0,.24-.1.34.34,0,0,0,.11-.25v-2.21a.34.34,0,0,0-.11-.25.31.31,0,0,0-.24-.1H83.26c-.09,0-.14,0-.14-.15v-5.53a.13.13,0,0,1,.14-.14H87a.35.35,0,0,0,.24-.1.34.34,0,0,0,.11-.25v-2.24a.34.34,0,0,0-.11-.25.31.31,0,0,0-.24-.1H83.26c-.09,0-.14-.05-.14-.15v-5.5a.13.13,0,0,1,.14-.14h6.29a.31.31,0,0,0,.24-.1A.34.34,0,0,0,89.9,277.37Zm10.56,17.81h2.79c.22,0,.32-.09.32-.26a.33.33,0,0,0,0-.15L100.69,286c0-.09,0-.15.09-.17a4.77,4.77,0,0,0,2-2,6.58,6.58,0,0,0,.7-3.11,7,7,0,0,0-.66-3.1,4.88,4.88,0,0,0-1.83-2.1,5,5,0,0,0-2.72-.74H92.75a.34.34,0,0,0-.35.35v19.67a.34.34,0,0,0,.35.35h2.67a.34.34,0,0,0,.35-.35v-8.27c0-.09,0-.14.15-.14h1.54q.09,0,.15.12l2.47,8.35A.37.37,0,0,0,100.46,295.18Zm-4.54-17.46h1.77a2.09,2.09,0,0,1,1.71.83,4.12,4.12,0,0,1,0,4.44,2.1,2.1,0,0,1-1.71.81H95.92a.13.13,0,0,1-.15-.15v-5.79C95.77,277.77,95.82,277.72,95.92,277.72Zm15,17.69a5.46,5.46,0,0,0,4-1.5,5.33,5.33,0,0,0,1.51-4v-.35a.33.33,0,0,0-.1-.25.37.37,0,0,0-.25-.1l-2.7-.11a.34.34,0,0,0-.35.35v.72a2.37,2.37,0,0,1-.58,1.66,2,2,0,0,1-1.54.64,1.94,1.94,0,0,1-1.52-.64,2.37,2.37,0,0,1-.58-1.66V279.78a2.34,2.34,0,0,1,.58-1.65,1.94,1.94,0,0,1,1.52-.64,2,2,0,0,1,1.54.64,2.34,2.34,0,0,1,.58,1.65v.73a.31.31,0,0,0,.35.35l2.7-.11a.32.32,0,0,0,.25-.12.39.39,0,0,0,.1-.26V280a5.27,5.27,0,0,0-1.51-4,5.52,5.52,0,0,0-4-1.47,5.45,5.45,0,0,0-4,1.47,5.3,5.3,0,0,0-1.5,4v9.92a5.16,5.16,0,0,0,5.48,5.47Zm8.52-.23h2.68a.35.35,0,0,0,.25-.1.37.37,0,0,0,.1-.25V275.16a.37.37,0,0,0-.1-.25.35.35,0,0,0-.25-.1h-2.68a.33.33,0,0,0-.25.1.37.37,0,0,0-.1.25v19.67a.37.37,0,0,0,.1.25A.33.33,0,0,0,119.46,295.18Zm6.52,0h5a5.42,5.42,0,0,0,4-1.51,5.5,5.5,0,0,0,1.5-4.05v-9.25a5.5,5.5,0,0,0-1.5-4.05,5.38,5.38,0,0,0-4-1.51h-5a.33.33,0,0,0-.25.1.37.37,0,0,0-.1.25v19.67a.37.37,0,0,0,.1.25A.33.33,0,0,0,126,295.18Zm3-3.06V277.86a.12.12,0,0,1,.14-.14h1.72a1.92,1.92,0,0,1,1.61.77,3.3,3.3,0,0,1,.6,2.08v8.85a3.4,3.4,0,0,1-.63,2.05,1.86,1.86,0,0,1-1.55.77l-1.75,0C129.05,292.27,129,292.22,129,292.12Zm18,3.06h2.7c.22,0,.33-.09.33-.26v-.12l-4.31-19.67a.36.36,0,0,0-.38-.32H142.3a.35.35,0,0,0-.37.32l-4.31,19.67c-.06.25,0,.38.32.38h2.65a.33.33,0,0,0,.38-.32l.55-3.06c0-.09.06-.14.17-.14h4.25c.12,0,.18,0,.18.14l.55,3.06A.33.33,0,0,0,147.05,295.18Zm-5-6.32,1.66-9.19q0-.09.09-.09s.07,0,.09.09l1.68,9.19c0,.1,0,.15-.14.15h-3.23Q142,289,142,288.86Zm14.15,6.55a5.24,5.24,0,0,0,3.89-1.5,5.39,5.39,0,0,0,1.49-4,5.23,5.23,0,0,0-.5-2.36,6.22,6.22,0,0,0-1.39-1.81,32.13,32.13,0,0,0-2.68-2.14,14.29,14.29,0,0,1-2.34-2,2.72,2.72,0,0,1-.6-1.78,2.53,2.53,0,0,1,.55-1.73,2,2,0,0,1,2.93.06,2.75,2.75,0,0,1,.57,1.82v.76a.34.34,0,0,0,.34.34h2.62a.33.33,0,0,0,.25-.1.31.31,0,0,0,.1-.24v-.7a5.41,5.41,0,0,0-1.48-4,5.88,5.88,0,0,0-7.74-.07,5.13,5.13,0,0,0-1.46,3.84,5.71,5.71,0,0,0,.6,2.67,7.13,7.13,0,0,0,1.48,2,26.88,26.88,0,0,0,2.35,1.86c.85.62,1.47,1.1,1.86,1.43a3.94,3.94,0,0,1,.9,1.05,2.57,2.57,0,0,1,.32,1.31,2.51,2.51,0,0,1-.58,1.73,1.91,1.91,0,0,1-1.48.65,1.81,1.81,0,0,1-1.48-.7,2.83,2.83,0,0,1-.56-1.83v-.58a.37.37,0,0,0-.1-.25.35.35,0,0,0-.25-.1h-2.65a.34.34,0,0,0-.35.35v.75a5.14,5.14,0,0,0,1.48,3.82A5.35,5.35,0,0,0,156.19,295.41Zm19.43-20.63h-5.47a.31.31,0,0,0-.24.1.34.34,0,0,0-.11.25v19.7a.34.34,0,0,0,.11.25.31.31,0,0,0,.24.1h2.68a.34.34,0,0,0,.35-.35v-8.09a.13.13,0,0,1,.15-.15h2.47a4.58,4.58,0,0,0,3.65-1.6,6.22,6.22,0,0,0,1.38-4.22,7.21,7.21,0,0,0-.65-3.11,5.07,5.07,0,0,0-1.83-2.12A4.92,4.92,0,0,0,175.62,274.78Zm-.55,9.17h-1.74a.13.13,0,0,1-.15-.15v-6a.13.13,0,0,1,.15-.15h1.74a2.07,2.07,0,0,1,1.73.86,3.69,3.69,0,0,1,.66,2.31,3.55,3.55,0,0,1-.66,2.26A2.09,2.09,0,0,1,175.07,284Zm13.27,11.46a5.49,5.49,0,0,0,4-1.51,5.38,5.38,0,0,0,1.55-4v-9.77a5.38,5.38,0,0,0-1.55-4,6.15,6.15,0,0,0-8.07,0,5.4,5.4,0,0,0-1.53,4v9.77a5.4,5.4,0,0,0,1.53,4A5.47,5.47,0,0,0,188.34,295.41Zm0-2.91a2,2,0,0,1-1.59-.68,2.66,2.66,0,0,1-.59-1.79V280a2.66,2.66,0,0,1,.59-1.79,2,2,0,0,1,1.59-.68,2,2,0,0,1,1.6.68,2.58,2.58,0,0,1,.61,1.79V290a2.58,2.58,0,0,1-.61,1.79A2.06,2.06,0,0,1,188.34,292.5Zm16.44,2.68h2.79c.22,0,.32-.09.32-.26a.61.61,0,0,0,0-.15L205,286c0-.09,0-.15.09-.17a4.71,4.71,0,0,0,2-2,6.46,6.46,0,0,0,.7-3.11,7,7,0,0,0-.66-3.1,4.88,4.88,0,0,0-1.83-2.1,5,5,0,0,0-2.72-.74h-5.47a.34.34,0,0,0-.35.35v19.67a.34.34,0,0,0,.35.35h2.68a.31.31,0,0,0,.24-.1.34.34,0,0,0,.11-.25v-8.27a.12.12,0,0,1,.14-.14h1.54q.09,0,.15.12l2.47,8.35A.37.37,0,0,0,204.78,295.18Zm-4.54-17.46H202a2.09,2.09,0,0,1,1.7.83,4.12,4.12,0,0,1,0,4.44,2.1,2.1,0,0,1-1.7.81h-1.78c-.1,0-.14-.05-.14-.15v-5.79A.12.12,0,0,1,200.24,277.72Zm24,17.46h2.71c.21,0,.32-.09.32-.26v-.12l-4.31-19.67a.36.36,0,0,0-.38-.32h-3.08a.35.35,0,0,0-.38.32l-4.31,19.67c-.06.25.05.38.32.38h2.65a.33.33,0,0,0,.38-.32l.55-3.06c0-.09.06-.14.17-.14h4.25c.12,0,.18,0,.18.14l.55,3.06A.33.33,0,0,0,224.22,295.18Zm-5-6.32,1.66-9.19q0-.09.09-.09s.07,0,.09.09l1.68,9.19c0,.1,0,.15-.14.15h-3.23Q219.18,289,219.21,288.86Zm14.67,6.55a5.59,5.59,0,0,0,4-1.44,5,5,0,0,0,1.53-3.83v-5.38a.34.34,0,0,0-.35-.35h-4.95a.35.35,0,0,0-.24.1.34.34,0,0,0-.11.25v2.13a.32.32,0,0,0,.11.24.31.31,0,0,0,.24.1h1.78c.09,0,.14,0,.14.15v2.79a2.42,2.42,0,0,1-.59,1.69,2,2,0,0,1-1.56.64,2,2,0,0,1-1.54-.64,2.41,2.41,0,0,1-.58-1.69V279.81a2.38,2.38,0,0,1,.58-1.68,2,2,0,0,1,1.54-.64,2,2,0,0,1,1.56.64,2.39,2.39,0,0,1,.59,1.68V281a.38.38,0,0,0,.35.35h2.68a.34.34,0,0,0,.25-.11.35.35,0,0,0,.1-.24v-1.14a5,5,0,0,0-1.53-3.85,5.59,5.59,0,0,0-4-1.44,5.49,5.49,0,0,0-4,1.44,5,5,0,0,0-1.5,3.82v10.3a5.05,5.05,0,0,0,1.5,3.83A5.49,5.49,0,0,0,233.88,295.41Zm18.48-18v-2.21a.37.37,0,0,0-.1-.25.33.33,0,0,0-.25-.1h-9.46a.33.33,0,0,0-.25.1.37.37,0,0,0-.1.25v19.67a.37.37,0,0,0,.1.25.33.33,0,0,0,.25.1H252a.33.33,0,0,0,.25-.1.37.37,0,0,0,.1-.25v-2.21a.37.37,0,0,0-.1-.25.33.33,0,0,0-.25-.1h-6.29c-.09,0-.14,0-.14-.15v-5.53a.13.13,0,0,1,.14-.14h3.73a.34.34,0,0,0,.35-.35v-2.24a.37.37,0,0,0-.1-.25.33.33,0,0,0-.25-.1h-3.73c-.09,0-.14-.05-.14-.15v-5.5a.13.13,0,0,1,.14-.14H252a.33.33,0,0,0,.25-.1A.37.37,0,0,0,252.36,277.37Zm10.77-2.21v12.16a.09.09,0,0,1-.08.1c-.05,0-.08,0-.1-.07l-4.36-12.25a.37.37,0,0,0-.38-.29h-3a.33.33,0,0,0-.25.1.37.37,0,0,0-.1.25v19.67a.37.37,0,0,0,.1.25.33.33,0,0,0,.25.1h2.65a.33.33,0,0,0,.25-.1.37.37,0,0,0,.1-.25l0-12.25c0-.06,0-.09.07-.1s.08,0,.1.07l4.34,12.34a.37.37,0,0,0,.38.29h3.05a.34.34,0,0,0,.35-.35V275.16a.34.34,0,0,0-.35-.35h-2.65a.33.33,0,0,0-.24.1A.33.33,0,0,0,263.13,275.16Zm16.93-.35H269.21a.34.34,0,0,0-.35.35v2.21a.34.34,0,0,0,.35.35h3.49c.1,0,.15,0,.15.14v17a.33.33,0,0,0,.1.25.31.31,0,0,0,.24.1h2.68a.34.34,0,0,0,.35-.35v-17c0-.09,0-.14.15-.14h3.69a.34.34,0,0,0,.35-.35v-2.21a.34.34,0,0,0-.35-.35Zm12.86,2.56v-2.21a.34.34,0,0,0-.35-.35h-9.45a.34.34,0,0,0-.35.35v19.67a.34.34,0,0,0,.35.35h9.45a.34.34,0,0,0,.35-.35v-2.21a.34.34,0,0,0-.35-.35h-6.28a.13.13,0,0,1-.15-.15v-5.53c0-.09.05-.14.15-.14H290a.37.37,0,0,0,.25-.1.33.33,0,0,0,.1-.25v-2.24a.34.34,0,0,0-.35-.35h-3.72a.13.13,0,0,1-.15-.15v-5.5c0-.09.05-.14.15-.14h6.28a.34.34,0,0,0,.35-.35Zm7.31,18a5.24,5.24,0,0,0,3.9-1.5,5.39,5.39,0,0,0,1.48-4,5.23,5.23,0,0,0-.49-2.36,6.26,6.26,0,0,0-1.4-1.81,32.13,32.13,0,0,0-2.68-2.14,14.75,14.75,0,0,1-2.34-2,2.72,2.72,0,0,1-.6-1.78,2.53,2.53,0,0,1,.56-1.73,1.81,1.81,0,0,1,1.42-.62,1.84,1.84,0,0,1,1.5.68,2.75,2.75,0,0,1,.57,1.82v.76a.31.31,0,0,0,.1.24.33.33,0,0,0,.25.1h2.62a.34.34,0,0,0,.34-.34v-.7a5.41,5.41,0,0,0-1.48-4,5.88,5.88,0,0,0-7.74-.07,5.13,5.13,0,0,0-1.45,3.84,5.71,5.71,0,0,0,.59,2.67,7,7,0,0,0,1.49,2,26.54,26.54,0,0,0,2.34,1.86c.85.62,1.47,1.1,1.86,1.43a3.94,3.94,0,0,1,.9,1.05,2.47,2.47,0,0,1,.32,1.31,2.51,2.51,0,0,1-.58,1.73,1.91,1.91,0,0,1-1.48.65,1.8,1.8,0,0,1-1.47-.7,2.78,2.78,0,0,1-.57-1.83v-.58a.34.34,0,0,0-.35-.35h-2.65a.31.31,0,0,0-.24.1.34.34,0,0,0-.11.25v.75a5.11,5.11,0,0,0,1.49,3.82A5.33,5.33,0,0,0,300.23,295.41Zm14-.23h5a5.41,5.41,0,0,0,4-1.51,5.5,5.5,0,0,0,1.5-4.05v-9.25a5.5,5.5,0,0,0-1.5-4.05,5.37,5.37,0,0,0-4-1.51h-5a.31.31,0,0,0-.24.1.34.34,0,0,0-.11.25v19.67a.34.34,0,0,0,.11.25A.31.31,0,0,0,314.22,295.18Zm3-3.06V277.86c0-.09.05-.14.15-.14h1.71a2,2,0,0,1,1.62.77,3.36,3.36,0,0,1,.59,2.08v8.85a3.4,3.4,0,0,1-.62,2.05,1.9,1.9,0,0,1-1.56.77l-1.74,0A.13.13,0,0,1,317.25,292.12Zm20.4-14.75v-2.21a.34.34,0,0,0-.35-.35h-9.46a.31.31,0,0,0-.24.1.34.34,0,0,0-.11.25v19.67a.34.34,0,0,0,.11.25.31.31,0,0,0,.24.1h9.46a.34.34,0,0,0,.35-.35v-2.21a.34.34,0,0,0-.35-.35H331c-.09,0-.14,0-.14-.15v-5.53a.13.13,0,0,1,.14-.14h3.73a.37.37,0,0,0,.25-.1.33.33,0,0,0,.1-.25v-2.24a.34.34,0,0,0-.35-.35H331c-.09,0-.14-.05-.14-.15v-5.5a.13.13,0,0,1,.14-.14h6.29a.34.34,0,0,0,.35-.35Zm8.67,17.81h9.46a.31.31,0,0,0,.24-.1.34.34,0,0,0,.11-.25v-2.21a.34.34,0,0,0-.11-.25.31.31,0,0,0-.24-.1h-6.29c-.09,0-.14,0-.14-.15v-17a.37.37,0,0,0-.1-.25.35.35,0,0,0-.25-.1h-2.68a.33.33,0,0,0-.25.1.37.37,0,0,0-.1.25v19.67a.37.37,0,0,0,.1.25A.33.33,0,0,0,346.32,295.18Zm20.75,0h2.7c.22,0,.32-.09.32-.26v-.12l-4.3-19.67a.36.36,0,0,0-.38-.32h-3.09a.34.34,0,0,0-.37.32l-4.31,19.67c-.06.25.05.38.32.38h2.65a.33.33,0,0,0,.38-.32l.55-3.06c0-.09.06-.14.17-.14H366c.12,0,.18,0,.18.14l.55,3.06A.33.33,0,0,0,367.07,295.18Zm-5-6.32,1.66-9.19q0-.09.09-.09s.07,0,.09.09l1.68,9.19c0,.1,0,.15-.14.15h-3.23Q362,289,362.06,288.86Zm26-11.49v-2.21a.34.34,0,0,0-.35-.35h-9.43a.31.31,0,0,0-.24.1.34.34,0,0,0-.11.25v19.67a.34.34,0,0,0,.11.25.31.31,0,0,0,.24.1h2.68a.33.33,0,0,0,.25-.1.37.37,0,0,0,.1-.25v-8.24a.13.13,0,0,1,.14-.14h3.7a.34.34,0,0,0,.35-.35v-2.24a.37.37,0,0,0-.1-.25.33.33,0,0,0-.25-.1h-3.7c-.09,0-.14-.05-.14-.15v-5.5a.13.13,0,0,1,.14-.14h6.26a.34.34,0,0,0,.35-.35Zm7.33,18a5.24,5.24,0,0,0,4-1.61,6,6,0,0,0,1.51-4.27V275.16a.34.34,0,0,0-.35-.35h-2.67a.34.34,0,0,0-.35.35v14.72a2.91,2.91,0,0,1-.59,1.89,2,2,0,0,1-3.08,0,2.9,2.9,0,0,1-.58-1.89V275.16a.37.37,0,0,0-.1-.25.33.33,0,0,0-.25-.1H390.2a.33.33,0,0,0-.25.1.37.37,0,0,0-.1.25v14.37a6,6,0,0,0,1.5,4.27A5.21,5.21,0,0,0,395.35,295.41Zm18.42-18v-2.21a.34.34,0,0,0-.35-.35H404a.34.34,0,0,0-.35.35v19.67a.34.34,0,0,0,.35.35h9.45a.34.34,0,0,0,.35-.35v-2.21a.34.34,0,0,0-.35-.35h-6.28a.13.13,0,0,1-.15-.15v-5.53c0-.09.05-.14.15-.14h3.72a.37.37,0,0,0,.25-.1.33.33,0,0,0,.1-.25v-2.24a.34.34,0,0,0-.35-.35h-3.72a.13.13,0,0,1-.15-.15v-5.5c0-.09.05-.14.15-.14h6.28a.34.34,0,0,0,.35-.35Zm10.57,17.81h2.79c.21,0,.32-.09.32-.26a.33.33,0,0,0,0-.15L424.57,286c0-.09,0-.15.09-.17a4.77,4.77,0,0,0,1.95-2,6.58,6.58,0,0,0,.7-3.11,7,7,0,0,0-.66-3.1,4.83,4.83,0,0,0-4.55-2.84h-5.47a.34.34,0,0,0-.35.35v19.67a.34.34,0,0,0,.35.35h2.67a.34.34,0,0,0,.35-.35v-8.27c0-.09.05-.14.15-.14h1.54c.06,0,.11,0,.14.12l2.48,8.35A.37.37,0,0,0,424.34,295.18Zm-4.54-17.46h1.77a2.06,2.06,0,0,1,1.7.83,4.06,4.06,0,0,1,0,4.44,2.07,2.07,0,0,1-1.7.81H419.8a.13.13,0,0,1-.15-.15v-5.79C419.65,277.77,419.7,277.72,419.8,277.72Zm9.4,17.46h9.54a.34.34,0,0,0,.35-.35v-2.21a.34.34,0,0,0-.35-.35h-6.17a.08.08,0,0,1-.08-.06.09.09,0,0,1,0-.12L439,277.92a1.18,1.18,0,0,0,.09-.43v-2.33a.34.34,0,0,0-.35-.35H429.2a.34.34,0,0,0-.35.35v2.21a.34.34,0,0,0,.35.35h6.17a.09.09,0,0,1,.08.06.11.11,0,0,1,0,.11l-6.52,14.17a1.32,1.32,0,0,0-.08.44v2.33a.34.34,0,0,0,.35.35Zm20.57,0h2.71c.21,0,.32-.09.32-.26v-.12l-4.31-19.67a.36.36,0,0,0-.38-.32H445a.35.35,0,0,0-.38.32l-4.31,19.67c-.06.25.05.38.32.38h2.65a.33.33,0,0,0,.38-.32l.55-3.06c0-.09.06-.14.17-.14h4.25c.12,0,.18,0,.18.14l.55,3.06A.33.33,0,0,0,449.77,295.18Zm-5-6.32,1.66-9.19q0-.09.09-.09s.07,0,.09.09l1.68,9.19c0,.1,0,.15-.14.15h-3.23Q444.73,289,444.76,288.86Zm21.63-14.08h-5.47a.34.34,0,0,0-.35.35v19.7a.34.34,0,0,0,.35.35h2.67a.34.34,0,0,0,.35-.35v-8.09a.13.13,0,0,1,.15-.15h2.47a4.58,4.58,0,0,0,3.65-1.6,6.22,6.22,0,0,0,1.38-4.22,7.06,7.06,0,0,0-.65-3.11,5.07,5.07,0,0,0-1.83-2.12A4.91,4.91,0,0,0,466.39,274.78Zm-.56,9.17h-1.74a.13.13,0,0,1-.15-.15v-6a.13.13,0,0,1,.15-.15h1.74a2.07,2.07,0,0,1,1.73.86,3.69,3.69,0,0,1,.66,2.31,3.55,3.55,0,0,1-.66,2.26A2.09,2.09,0,0,1,465.83,284Zm13.45,11.46a5.23,5.23,0,0,0,4-1.61,6,6,0,0,0,1.52-4.27V275.16a.34.34,0,0,0-.11-.25.33.33,0,0,0-.24-.1h-2.68a.34.34,0,0,0-.35.35v14.72a2.9,2.9,0,0,1-.58,1.89,1.86,1.86,0,0,1-1.54.73,1.88,1.88,0,0,1-1.55-.73,2.9,2.9,0,0,1-.58-1.89V275.16a.34.34,0,0,0-.35-.35h-2.67a.34.34,0,0,0-.35.35v14.37a6.07,6.07,0,0,0,1.49,4.27A5.24,5.24,0,0,0,479.28,295.41ZM477.94,273h1.66a.45.45,0,0,0,.4-.21l2.16-3a.33.33,0,0,0,0-.31c0-.09-.13-.13-.29-.13h-2.09a.45.45,0,0,0-.44.23l-1.71,3c-.08.12-.09.21,0,.29A.32.32,0,0,0,477.94,273Zm20.69,16.64a6.31,6.31,0,0,0-.64-2.91,5.14,5.14,0,0,0-1.78-1.95c-.06-.06,0-.11.06-.17a4.6,4.6,0,0,0,2.13-4.28,5.16,5.16,0,0,0-1.58-4.07,6.28,6.28,0,0,0-4.33-1.4h-4.6a.34.34,0,0,0-.35.35v19.67a.34.34,0,0,0,.35.35H493a5.71,5.71,0,0,0,4.06-1.46A5.36,5.36,0,0,0,498.63,289.59Zm-7.57-11.87h1.49a2.35,2.35,0,0,1,1.86.76,3.16,3.16,0,0,1,.67,2.15,3,3,0,0,1-.67,2.06,2.4,2.4,0,0,1-1.86.73h-1.49a.12.12,0,0,1-.14-.14v-5.42A.12.12,0,0,1,491.06,277.72Zm1.69,14.52h-1.69c-.1,0-.14-.05-.14-.15v-6a.12.12,0,0,1,.14-.14h1.69a2.18,2.18,0,0,1,1.83.85,3.78,3.78,0,0,1,.67,2.38,3.52,3.52,0,0,1-.67,2.3A2.23,2.23,0,0,1,492.75,292.24Zm8.58,2.94h9.46a.34.34,0,0,0,.35-.35v-2.21a.34.34,0,0,0-.35-.35h-6.28a.13.13,0,0,1-.15-.15v-17a.37.37,0,0,0-.1-.25.33.33,0,0,0-.25-.1h-2.68a.31.31,0,0,0-.24.1.34.34,0,0,0-.11.25v19.67a.34.34,0,0,0,.11.25A.31.31,0,0,0,501.33,295.18Zm12.08,0h2.68a.31.31,0,0,0,.24-.1.34.34,0,0,0,.11-.25V275.16a.34.34,0,0,0-.11-.25.31.31,0,0,0-.24-.1h-2.68a.33.33,0,0,0-.25.1.37.37,0,0,0-.1.25v19.67a.37.37,0,0,0,.1.25A.33.33,0,0,0,513.41,295.18Zm11.29.23a5.46,5.46,0,0,0,4-1.5,5.37,5.37,0,0,0,1.51-4v-.35a.34.34,0,0,0-.35-.35l-2.71-.11a.31.31,0,0,0-.24.1.33.33,0,0,0-.1.25v.72a2.37,2.37,0,0,1-.59,1.66,2,2,0,0,1-1.54.64,1.92,1.92,0,0,1-1.51-.64,2.37,2.37,0,0,1-.59-1.66V279.78a2.35,2.35,0,0,1,.59-1.65,1.92,1.92,0,0,1,1.51-.64,2,2,0,0,1,1.54.64,2.35,2.35,0,0,1,.59,1.65v.73c0,.24.11.35.34.35l2.71-.11a.32.32,0,0,0,.25-.12.44.44,0,0,0,.1-.26V280a5.31,5.31,0,0,0-1.51-4,5.53,5.53,0,0,0-4-1.47,5.42,5.42,0,0,0-4,1.47,5.3,5.3,0,0,0-1.5,4v9.92a5.16,5.16,0,0,0,5.47,5.47Zm16.21-.23h2.7c.22,0,.33-.09.33-.26v-.12l-4.31-19.67a.36.36,0,0,0-.38-.32h-3.08a.35.35,0,0,0-.38.32l-4.31,19.67c-.06.25,0,.38.32.38h2.65a.33.33,0,0,0,.38-.32l.55-3.06c0-.09.06-.14.17-.14h4.25c.12,0,.18,0,.18.14l.55,3.06A.33.33,0,0,0,540.91,295.18Zm-5-6.32,1.66-9.19q0-.09.09-.09s.07,0,.09.09l1.68,9.19c0,.1,0,.15-.14.15h-3.23Q535.87,289,535.9,288.86Z"/></g></g></svg>